<?xml version="1.0" encoding="utf-8" standalone="no"?>
<!DOCTYPE svg PUBLIC "-//W3C//DTD SVG 1.1//EN"
  "http://www.w3.org/Graphics/SVG/1.1/DTD/svg11.dtd">
<svg xmlns:xlink="http://www.w3.org/1999/xlink" width="460.8pt" height="345.6pt" viewBox="0 0 460.8 345.6" xmlns="http://www.w3.org/2000/svg" version="1.1">
 <metadata>
  <rdf:RDF xmlns:dc="http://purl.org/dc/elements/1.1/" xmlns:cc="http://creativecommons.org/ns#" xmlns:rdf="http://www.w3.org/1999/02/22-rdf-syntax-ns#">
   <cc:Work>
    <dc:type rdf:resource="http://purl.org/dc/dcmitype/StillImage"/>
    <dc:date>2023-05-02T22:08:26.969077</dc:date>
    <dc:format>image/svg+xml</dc:format>
    <dc:creator>
     <cc:Agent>
      <dc:title>Matplotlib v3.7.1, https://matplotlib.org/</dc:title>
     </cc:Agent>
    </dc:creator>
   </cc:Work>
  </rdf:RDF>
 </metadata>
 <defs>
  <style type="text/css">*{stroke-linejoin: round; stroke-linecap: butt}</style>
 </defs>
 <g id="figure_1">
  <g id="patch_1">
   <path d="M 0 345.6 
L 460.8 345.6 
L 460.8 0 
L 0 0 
z
" style="fill: #ffffff"/>
  </g>
  <g id="axes_1">
   <g id="patch_2">
    <path d="M 57.6 307.584 
L 414.72 307.584 
L 414.72 41.472 
L 57.6 41.472 
z
" style="fill: #ffffff"/>
   </g>
   <g id="matplotlib.axis_1">
    <g id="xtick_1">
     <g id="line2d_1">
      <defs>
       <path id="mb2f8353669" d="M 0 0 
L 0 3.5 
" style="stroke: #000000; stroke-width: 0.8"/>
      </defs>
      <g>
       <use xlink:href="#mb2f8353669" x="57.6" y="307.584" style="stroke: #000000; stroke-width: 0.8"/>
      </g>
     </g>
     <g id="text_1">
      <!-- 0.0 -->
      <g transform="translate(49.648438 322.182437) scale(0.1 -0.1)">
       <defs>
        <path id="DejaVuSans-30" d="M 2034 4250 
Q 1547 4250 1301 3770 
Q 1056 3291 1056 2328 
Q 1056 1369 1301 889 
Q 1547 409 2034 409 
Q 2525 409 2770 889 
Q 3016 1369 3016 2328 
Q 3016 3291 2770 3770 
Q 2525 4250 2034 4250 
z
M 2034 4750 
Q 2819 4750 3233 4129 
Q 3647 3509 3647 2328 
Q 3647 1150 3233 529 
Q 2819 -91 2034 -91 
Q 1250 -91 836 529 
Q 422 1150 422 2328 
Q 422 3509 836 4129 
Q 1250 4750 2034 4750 
z
" transform="scale(0.015625)"/>
        <path id="DejaVuSans-2e" d="M 684 794 
L 1344 794 
L 1344 0 
L 684 0 
L 684 794 
z
" transform="scale(0.015625)"/>
       </defs>
       <use xlink:href="#DejaVuSans-30"/>
       <use xlink:href="#DejaVuSans-2e" x="63.623047"/>
       <use xlink:href="#DejaVuSans-30" x="95.410156"/>
      </g>
     </g>
    </g>
    <g id="xtick_2">
     <g id="line2d_2">
      <g>
       <use xlink:href="#mb2f8353669" x="129.024" y="307.584" style="stroke: #000000; stroke-width: 0.8"/>
      </g>
     </g>
     <g id="text_2">
      <!-- 0.2 -->
      <g transform="translate(121.072438 322.182437) scale(0.1 -0.1)">
       <defs>
        <path id="DejaVuSans-32" d="M 1228 531 
L 3431 531 
L 3431 0 
L 469 0 
L 469 531 
Q 828 903 1448 1529 
Q 2069 2156 2228 2338 
Q 2531 2678 2651 2914 
Q 2772 3150 2772 3378 
Q 2772 3750 2511 3984 
Q 2250 4219 1831 4219 
Q 1534 4219 1204 4116 
Q 875 4013 500 3803 
L 500 4441 
Q 881 4594 1212 4672 
Q 1544 4750 1819 4750 
Q 2544 4750 2975 4387 
Q 3406 4025 3406 3419 
Q 3406 3131 3298 2873 
Q 3191 2616 2906 2266 
Q 2828 2175 2409 1742 
Q 1991 1309 1228 531 
z
" transform="scale(0.015625)"/>
       </defs>
       <use xlink:href="#DejaVuSans-30"/>
       <use xlink:href="#DejaVuSans-2e" x="63.623047"/>
       <use xlink:href="#DejaVuSans-32" x="95.410156"/>
      </g>
     </g>
    </g>
    <g id="xtick_3">
     <g id="line2d_3">
      <g>
       <use xlink:href="#mb2f8353669" x="200.448" y="307.584" style="stroke: #000000; stroke-width: 0.8"/>
      </g>
     </g>
     <g id="text_3">
      <!-- 0.4 -->
      <g transform="translate(192.496438 322.182437) scale(0.1 -0.1)">
       <defs>
        <path id="DejaVuSans-34" d="M 2419 4116 
L 825 1625 
L 2419 1625 
L 2419 4116 
z
M 2253 4666 
L 3047 4666 
L 3047 1625 
L 3713 1625 
L 3713 1100 
L 3047 1100 
L 3047 0 
L 2419 0 
L 2419 1100 
L 313 1100 
L 313 1709 
L 2253 4666 
z
" transform="scale(0.015625)"/>
       </defs>
       <use xlink:href="#DejaVuSans-30"/>
       <use xlink:href="#DejaVuSans-2e" x="63.623047"/>
       <use xlink:href="#DejaVuSans-34" x="95.410156"/>
      </g>
     </g>
    </g>
    <g id="xtick_4">
     <g id="line2d_4">
      <g>
       <use xlink:href="#mb2f8353669" x="271.872" y="307.584" style="stroke: #000000; stroke-width: 0.8"/>
      </g>
     </g>
     <g id="text_4">
      <!-- 0.6 -->
      <g transform="translate(263.920438 322.182437) scale(0.1 -0.1)">
       <defs>
        <path id="DejaVuSans-36" d="M 2113 2584 
Q 1688 2584 1439 2293 
Q 1191 2003 1191 1497 
Q 1191 994 1439 701 
Q 1688 409 2113 409 
Q 2538 409 2786 701 
Q 3034 994 3034 1497 
Q 3034 2003 2786 2293 
Q 2538 2584 2113 2584 
z
M 3366 4563 
L 3366 3988 
Q 3128 4100 2886 4159 
Q 2644 4219 2406 4219 
Q 1781 4219 1451 3797 
Q 1122 3375 1075 2522 
Q 1259 2794 1537 2939 
Q 1816 3084 2150 3084 
Q 2853 3084 3261 2657 
Q 3669 2231 3669 1497 
Q 3669 778 3244 343 
Q 2819 -91 2113 -91 
Q 1303 -91 875 529 
Q 447 1150 447 2328 
Q 447 3434 972 4092 
Q 1497 4750 2381 4750 
Q 2619 4750 2861 4703 
Q 3103 4656 3366 4563 
z
" transform="scale(0.015625)"/>
       </defs>
       <use xlink:href="#DejaVuSans-30"/>
       <use xlink:href="#DejaVuSans-2e" x="63.623047"/>
       <use xlink:href="#DejaVuSans-36" x="95.410156"/>
      </g>
     </g>
    </g>
    <g id="xtick_5">
     <g id="line2d_5">
      <g>
       <use xlink:href="#mb2f8353669" x="343.296" y="307.584" style="stroke: #000000; stroke-width: 0.8"/>
      </g>
     </g>
     <g id="text_5">
      <!-- 0.8 -->
      <g transform="translate(335.344438 322.182437) scale(0.1 -0.1)">
       <defs>
        <path id="DejaVuSans-38" d="M 2034 2216 
Q 1584 2216 1326 1975 
Q 1069 1734 1069 1313 
Q 1069 891 1326 650 
Q 1584 409 2034 409 
Q 2484 409 2743 651 
Q 3003 894 3003 1313 
Q 3003 1734 2745 1975 
Q 2488 2216 2034 2216 
z
M 1403 2484 
Q 997 2584 770 2862 
Q 544 3141 544 3541 
Q 544 4100 942 4425 
Q 1341 4750 2034 4750 
Q 2731 4750 3128 4425 
Q 3525 4100 3525 3541 
Q 3525 3141 3298 2862 
Q 3072 2584 2669 2484 
Q 3125 2378 3379 2068 
Q 3634 1759 3634 1313 
Q 3634 634 3220 271 
Q 2806 -91 2034 -91 
Q 1263 -91 848 271 
Q 434 634 434 1313 
Q 434 1759 690 2068 
Q 947 2378 1403 2484 
z
M 1172 3481 
Q 1172 3119 1398 2916 
Q 1625 2713 2034 2713 
Q 2441 2713 2670 2916 
Q 2900 3119 2900 3481 
Q 2900 3844 2670 4047 
Q 2441 4250 2034 4250 
Q 1625 4250 1398 4047 
Q 1172 3844 1172 3481 
z
" transform="scale(0.015625)"/>
       </defs>
       <use xlink:href="#DejaVuSans-30"/>
       <use xlink:href="#DejaVuSans-2e" x="63.623047"/>
       <use xlink:href="#DejaVuSans-38" x="95.410156"/>
      </g>
     </g>
    </g>
    <g id="xtick_6">
     <g id="line2d_6">
      <g>
       <use xlink:href="#mb2f8353669" x="414.72" y="307.584" style="stroke: #000000; stroke-width: 0.8"/>
      </g>
     </g>
     <g id="text_6">
      <!-- 1.0 -->
      <g transform="translate(406.768438 322.182437) scale(0.1 -0.1)">
       <defs>
        <path id="DejaVuSans-31" d="M 794 531 
L 1825 531 
L 1825 4091 
L 703 3866 
L 703 4441 
L 1819 4666 
L 2450 4666 
L 2450 531 
L 3481 531 
L 3481 0 
L 794 0 
L 794 531 
z
" transform="scale(0.015625)"/>
       </defs>
       <use xlink:href="#DejaVuSans-31"/>
       <use xlink:href="#DejaVuSans-2e" x="63.623047"/>
       <use xlink:href="#DejaVuSans-30" x="95.410156"/>
      </g>
     </g>
    </g>
    <g id="text_7">
     <!-- Recall -->
     <g transform="translate(221.242812 335.860562) scale(0.1 -0.1)">
      <defs>
       <path id="DejaVuSans-52" d="M 2841 2188 
Q 3044 2119 3236 1894 
Q 3428 1669 3622 1275 
L 4263 0 
L 3584 0 
L 2988 1197 
Q 2756 1666 2539 1819 
Q 2322 1972 1947 1972 
L 1259 1972 
L 1259 0 
L 628 0 
L 628 4666 
L 2053 4666 
Q 2853 4666 3247 4331 
Q 3641 3997 3641 3322 
Q 3641 2881 3436 2590 
Q 3231 2300 2841 2188 
z
M 1259 4147 
L 1259 2491 
L 2053 2491 
Q 2509 2491 2742 2702 
Q 2975 2913 2975 3322 
Q 2975 3731 2742 3939 
Q 2509 4147 2053 4147 
L 1259 4147 
z
" transform="scale(0.015625)"/>
       <path id="DejaVuSans-65" d="M 3597 1894 
L 3597 1613 
L 953 1613 
Q 991 1019 1311 708 
Q 1631 397 2203 397 
Q 2534 397 2845 478 
Q 3156 559 3463 722 
L 3463 178 
Q 3153 47 2828 -22 
Q 2503 -91 2169 -91 
Q 1331 -91 842 396 
Q 353 884 353 1716 
Q 353 2575 817 3079 
Q 1281 3584 2069 3584 
Q 2775 3584 3186 3129 
Q 3597 2675 3597 1894 
z
M 3022 2063 
Q 3016 2534 2758 2815 
Q 2500 3097 2075 3097 
Q 1594 3097 1305 2825 
Q 1016 2553 972 2059 
L 3022 2063 
z
" transform="scale(0.015625)"/>
       <path id="DejaVuSans-63" d="M 3122 3366 
L 3122 2828 
Q 2878 2963 2633 3030 
Q 2388 3097 2138 3097 
Q 1578 3097 1268 2742 
Q 959 2388 959 1747 
Q 959 1106 1268 751 
Q 1578 397 2138 397 
Q 2388 397 2633 464 
Q 2878 531 3122 666 
L 3122 134 
Q 2881 22 2623 -34 
Q 2366 -91 2075 -91 
Q 1284 -91 818 406 
Q 353 903 353 1747 
Q 353 2603 823 3093 
Q 1294 3584 2113 3584 
Q 2378 3584 2631 3529 
Q 2884 3475 3122 3366 
z
" transform="scale(0.015625)"/>
       <path id="DejaVuSans-61" d="M 2194 1759 
Q 1497 1759 1228 1600 
Q 959 1441 959 1056 
Q 959 750 1161 570 
Q 1363 391 1709 391 
Q 2188 391 2477 730 
Q 2766 1069 2766 1631 
L 2766 1759 
L 2194 1759 
z
M 3341 1997 
L 3341 0 
L 2766 0 
L 2766 531 
Q 2569 213 2275 61 
Q 1981 -91 1556 -91 
Q 1019 -91 701 211 
Q 384 513 384 1019 
Q 384 1609 779 1909 
Q 1175 2209 1959 2209 
L 2766 2209 
L 2766 2266 
Q 2766 2663 2505 2880 
Q 2244 3097 1772 3097 
Q 1472 3097 1187 3025 
Q 903 2953 641 2809 
L 641 3341 
Q 956 3463 1253 3523 
Q 1550 3584 1831 3584 
Q 2591 3584 2966 3190 
Q 3341 2797 3341 1997 
z
" transform="scale(0.015625)"/>
       <path id="DejaVuSans-6c" d="M 603 4863 
L 1178 4863 
L 1178 0 
L 603 0 
L 603 4863 
z
" transform="scale(0.015625)"/>
      </defs>
      <use xlink:href="#DejaVuSans-52"/>
      <use xlink:href="#DejaVuSans-65" x="64.982422"/>
      <use xlink:href="#DejaVuSans-63" x="126.505859"/>
      <use xlink:href="#DejaVuSans-61" x="181.486328"/>
      <use xlink:href="#DejaVuSans-6c" x="242.765625"/>
      <use xlink:href="#DejaVuSans-6c" x="270.548828"/>
     </g>
    </g>
   </g>
   <g id="matplotlib.axis_2">
    <g id="ytick_1">
     <g id="line2d_7">
      <defs>
       <path id="ma72788ca26" d="M 0 0 
L -3.5 0 
" style="stroke: #000000; stroke-width: 0.8"/>
      </defs>
      <g>
       <use xlink:href="#ma72788ca26" x="57.6" y="307.584" style="stroke: #000000; stroke-width: 0.8"/>
      </g>
     </g>
     <g id="text_8">
      <!-- 0.0 -->
      <g transform="translate(34.696875 311.383219) scale(0.1 -0.1)">
       <use xlink:href="#DejaVuSans-30"/>
       <use xlink:href="#DejaVuSans-2e" x="63.623047"/>
       <use xlink:href="#DejaVuSans-30" x="95.410156"/>
      </g>
     </g>
    </g>
    <g id="ytick_2">
     <g id="line2d_8">
      <g>
       <use xlink:href="#ma72788ca26" x="57.6" y="256.896" style="stroke: #000000; stroke-width: 0.8"/>
      </g>
     </g>
     <g id="text_9">
      <!-- 0.2 -->
      <g transform="translate(34.696875 260.695219) scale(0.1 -0.1)">
       <use xlink:href="#DejaVuSans-30"/>
       <use xlink:href="#DejaVuSans-2e" x="63.623047"/>
       <use xlink:href="#DejaVuSans-32" x="95.410156"/>
      </g>
     </g>
    </g>
    <g id="ytick_3">
     <g id="line2d_9">
      <g>
       <use xlink:href="#ma72788ca26" x="57.6" y="206.208" style="stroke: #000000; stroke-width: 0.8"/>
      </g>
     </g>
     <g id="text_10">
      <!-- 0.4 -->
      <g transform="translate(34.696875 210.007219) scale(0.1 -0.1)">
       <use xlink:href="#DejaVuSans-30"/>
       <use xlink:href="#DejaVuSans-2e" x="63.623047"/>
       <use xlink:href="#DejaVuSans-34" x="95.410156"/>
      </g>
     </g>
    </g>
    <g id="ytick_4">
     <g id="line2d_10">
      <g>
       <use xlink:href="#ma72788ca26" x="57.6" y="155.52" style="stroke: #000000; stroke-width: 0.8"/>
      </g>
     </g>
     <g id="text_11">
      <!-- 0.6 -->
      <g transform="translate(34.696875 159.319219) scale(0.1 -0.1)">
       <use xlink:href="#DejaVuSans-30"/>
       <use xlink:href="#DejaVuSans-2e" x="63.623047"/>
       <use xlink:href="#DejaVuSans-36" x="95.410156"/>
      </g>
     </g>
    </g>
    <g id="ytick_5">
     <g id="line2d_11">
      <g>
       <use xlink:href="#ma72788ca26" x="57.6" y="104.832" style="stroke: #000000; stroke-width: 0.8"/>
      </g>
     </g>
     <g id="text_12">
      <!-- 0.8 -->
      <g transform="translate(34.696875 108.631219) scale(0.1 -0.1)">
       <use xlink:href="#DejaVuSans-30"/>
       <use xlink:href="#DejaVuSans-2e" x="63.623047"/>
       <use xlink:href="#DejaVuSans-38" x="95.410156"/>
      </g>
     </g>
    </g>
    <g id="ytick_6">
     <g id="line2d_12">
      <g>
       <use xlink:href="#ma72788ca26" x="57.6" y="54.144" style="stroke: #000000; stroke-width: 0.8"/>
      </g>
     </g>
     <g id="text_13">
      <!-- 1.0 -->
      <g transform="translate(34.696875 57.943219) scale(0.1 -0.1)">
       <use xlink:href="#DejaVuSans-31"/>
       <use xlink:href="#DejaVuSans-2e" x="63.623047"/>
       <use xlink:href="#DejaVuSans-30" x="95.410156"/>
      </g>
     </g>
    </g>
    <g id="text_14">
     <!-- Precision -->
     <g transform="translate(28.617187 196.835031) rotate(-90) scale(0.1 -0.1)">
      <defs>
       <path id="DejaVuSans-50" d="M 1259 4147 
L 1259 2394 
L 2053 2394 
Q 2494 2394 2734 2622 
Q 2975 2850 2975 3272 
Q 2975 3691 2734 3919 
Q 2494 4147 2053 4147 
L 1259 4147 
z
M 628 4666 
L 2053 4666 
Q 2838 4666 3239 4311 
Q 3641 3956 3641 3272 
Q 3641 2581 3239 2228 
Q 2838 1875 2053 1875 
L 1259 1875 
L 1259 0 
L 628 0 
L 628 4666 
z
" transform="scale(0.015625)"/>
       <path id="DejaVuSans-72" d="M 2631 2963 
Q 2534 3019 2420 3045 
Q 2306 3072 2169 3072 
Q 1681 3072 1420 2755 
Q 1159 2438 1159 1844 
L 1159 0 
L 581 0 
L 581 3500 
L 1159 3500 
L 1159 2956 
Q 1341 3275 1631 3429 
Q 1922 3584 2338 3584 
Q 2397 3584 2469 3576 
Q 2541 3569 2628 3553 
L 2631 2963 
z
" transform="scale(0.015625)"/>
       <path id="DejaVuSans-69" d="M 603 3500 
L 1178 3500 
L 1178 0 
L 603 0 
L 603 3500 
z
M 603 4863 
L 1178 4863 
L 1178 4134 
L 603 4134 
L 603 4863 
z
" transform="scale(0.015625)"/>
       <path id="DejaVuSans-73" d="M 2834 3397 
L 2834 2853 
Q 2591 2978 2328 3040 
Q 2066 3103 1784 3103 
Q 1356 3103 1142 2972 
Q 928 2841 928 2578 
Q 928 2378 1081 2264 
Q 1234 2150 1697 2047 
L 1894 2003 
Q 2506 1872 2764 1633 
Q 3022 1394 3022 966 
Q 3022 478 2636 193 
Q 2250 -91 1575 -91 
Q 1294 -91 989 -36 
Q 684 19 347 128 
L 347 722 
Q 666 556 975 473 
Q 1284 391 1588 391 
Q 1994 391 2212 530 
Q 2431 669 2431 922 
Q 2431 1156 2273 1281 
Q 2116 1406 1581 1522 
L 1381 1569 
Q 847 1681 609 1914 
Q 372 2147 372 2553 
Q 372 3047 722 3315 
Q 1072 3584 1716 3584 
Q 2034 3584 2315 3537 
Q 2597 3491 2834 3397 
z
" transform="scale(0.015625)"/>
       <path id="DejaVuSans-6f" d="M 1959 3097 
Q 1497 3097 1228 2736 
Q 959 2375 959 1747 
Q 959 1119 1226 758 
Q 1494 397 1959 397 
Q 2419 397 2687 759 
Q 2956 1122 2956 1747 
Q 2956 2369 2687 2733 
Q 2419 3097 1959 3097 
z
M 1959 3584 
Q 2709 3584 3137 3096 
Q 3566 2609 3566 1747 
Q 3566 888 3137 398 
Q 2709 -91 1959 -91 
Q 1206 -91 779 398 
Q 353 888 353 1747 
Q 353 2609 779 3096 
Q 1206 3584 1959 3584 
z
" transform="scale(0.015625)"/>
       <path id="DejaVuSans-6e" d="M 3513 2113 
L 3513 0 
L 2938 0 
L 2938 2094 
Q 2938 2591 2744 2837 
Q 2550 3084 2163 3084 
Q 1697 3084 1428 2787 
Q 1159 2491 1159 1978 
L 1159 0 
L 581 0 
L 581 3500 
L 1159 3500 
L 1159 2956 
Q 1366 3272 1645 3428 
Q 1925 3584 2291 3584 
Q 2894 3584 3203 3211 
Q 3513 2838 3513 2113 
z
" transform="scale(0.015625)"/>
      </defs>
      <use xlink:href="#DejaVuSans-50"/>
      <use xlink:href="#DejaVuSans-72" x="58.552734"/>
      <use xlink:href="#DejaVuSans-65" x="97.416016"/>
      <use xlink:href="#DejaVuSans-63" x="158.939453"/>
      <use xlink:href="#DejaVuSans-69" x="213.919922"/>
      <use xlink:href="#DejaVuSans-73" x="241.703125"/>
      <use xlink:href="#DejaVuSans-69" x="293.802734"/>
      <use xlink:href="#DejaVuSans-6f" x="321.585938"/>
      <use xlink:href="#DejaVuSans-6e" x="382.767578"/>
     </g>
    </g>
   </g>
   <g id="line2d_13">
    <path d="M 414.72 223.104 
L 414.72 203.723924 
L 414.351835 203.723924 
L 414.351835 203.655367 
L 414.351835 191.688125 
L 413.98367 191.688125 
L 413.98367 191.588766 
L 413.98367 180.798512 
L 413.615505 180.798512 
L 413.615505 180.73282 
L 413.615505 165.67521 
L 413.24734 165.67521 
L 413.24734 165.575276 
L 413.24734 145.0189 
L 412.879175 145.0189 
L 412.879175 144.971234 
L 412.879175 143.882795 
L 412.51101 143.882795 
L 412.51101 143.833223 
L 412.51101 120.224982 
L 412.142845 120.224982 
L 412.142845 120.131834 
L 412.142845 118.094311 
L 411.77468 118.094311 
L 411.77468 117.996691 
L 411.77468 117.405154 
L 411.406515 117.405154 
L 411.406515 117.306 
L 411.406515 113.824382 
L 411.038351 113.824382 
L 411.038351 113.717546 
L 411.038351 106.673678 
L 410.670186 106.673678 
L 410.670186 106.717091 
L 410.670186 105.716093 
L 410.302021 105.716093 
L 410.302021 105.758963 
L 410.302021 96.64089 
L 409.933856 96.64089 
L 409.933856 96.677843 
L 409.933856 95.756856 
L 409.197526 95.793231 
L 409.197526 95.829669 
L 409.197526 93.771986 
L 408.461196 93.807024 
L 408.461196 93.842124 
L 408.461196 93.463149 
L 408.093031 93.463149 
L 408.093031 93.498037 
L 408.093031 92.544 
L 407.724866 92.544 
L 407.724866 92.578255 
L 407.724866 92.001317 
L 407.356701 92.001317 
L 407.356701 92.035209 
L 407.356701 90.480303 
L 406.988536 90.480303 
L 406.988536 90.513097 
L 406.988536 88.9344 
L 406.620371 88.9344 
L 406.620371 88.966056 
L 406.620371 87.362992 
L 406.252206 87.362992 
L 406.252206 87.393468 
L 406.252206 86.988706 
L 405.884041 86.988706 
L 405.884041 87.018922 
L 405.884041 85.177469 
L 405.515876 85.177469 
L 405.515876 85.206284 
L 405.515876 84.792558 
L 405.147711 84.792558 
L 405.147711 84.821095 
L 405.147711 81.665813 
L 404.779546 81.665813 
L 404.779546 81.691826 
L 404.779546 81.264 
L 404.411381 81.264 
L 404.411381 81.289706 
L 404.411381 80.859897 
L 404.043216 80.859897 
L 404.043216 80.885293 
L 404.043216 79.584918 
L 403.675052 79.584918 
L 403.675052 79.609263 
L 403.675052 79.390897 
L 403.306887 79.390897 
L 403.306887 79.415103 
L 403.306887 78.536685 
L 402.202392 78.58373 
L 402.202392 78.60732 
L 402.202392 78.386087 
L 401.834227 78.386087 
L 401.834227 78.409532 
L 401.834227 78.187679 
L 401.466062 78.187679 
L 401.466062 78.210977 
L 401.466062 75.966622 
L 401.097897 75.966622 
L 401.097897 75.987996 
L 401.097897 73.697234 
L 400.729732 73.697234 
L 400.729732 73.716594 
L 400.729732 72.786704 
L 400.361567 72.786704 
L 400.361567 72.805254 
L 400.361567 72.337101 
L 399.993402 72.337101 
L 399.993402 72.355257 
L 399.993402 70.938217 
L 399.625237 70.938217 
L 399.625237 70.955095 
L 399.625237 70.717038 
L 399.257072 70.717038 
L 399.257072 70.733728 
L 399.257072 70.255726 
L 398.888907 70.255726 
L 398.888907 70.272 
L 398.888907 69.309274 
L 398.152577 69.32467 
L 398.152577 69.340098 
L 398.152577 69.097733 
L 397.416247 69.112961 
L 397.416247 69.12822 
L 397.416247 68.884898 
L 396.311753 68.915043 
L 396.311753 68.930162 
L 396.311753 67.949057 
L 395.575423 67.963259 
L 395.575423 67.977491 
L 395.575423 67.482947 
L 395.207258 67.482947 
L 395.207258 67.496727 
L 395.207258 66.999652 
L 394.839093 66.999652 
L 394.839093 67.012974 
L 394.839093 66.763419 
L 394.470928 66.763419 
L 394.470928 66.776523 
L 394.470928 66.024 
L 393.366433 66.048802 
L 393.366433 66.061241 
L 393.366433 65.808603 
L 392.998268 65.808603 
L 392.998268 65.820817 
L 392.998268 65.313444 
L 392.630103 65.313444 
L 392.630103 65.325176 
L 392.630103 64.046091 
L 391.525608 64.067048 
L 391.525608 64.077559 
L 391.525608 63.819334 
L 391.157443 63.819334 
L 391.157443 63.829605 
L 391.157443 63.570567 
L 390.421113 63.580596 
L 390.421113 63.590645 
L 390.421113 63.330525 
L 388.948454 63.36 
L 388.948454 63.369867 
L 388.948454 62.582926 
L 386.739464 62.628492 
L 386.739464 62.637665 
L 386.739464 62.372571 
L 385.266804 62.399375 
L 385.266804 62.408348 
L 385.266804 62.141563 
L 380.48066 62.247374 
L 380.48066 62.256318 
L 376.06268 62.356022 
L 376.06268 62.365208 
L 376.06268 61.263101 
L 375.694515 61.263101 
L 375.694515 61.271109 
L 375.694515 60.99373 
L 374.590021 61.009192 
L 374.590021 61.016949 
L 374.590021 60.738027 
L 374.221856 60.738027 
L 374.221856 60.745495 
L 374.221856 60.465633 
L 368.331216 60.575003 
L 368.331216 60.58243 
L 367.963052 60.58243 
L 367.963052 60.589873 
L 367.963052 60.304 
L 365.017732 60.354315 
L 365.017732 60.36157 
L 365.017732 60.072421 
L 363.176907 60.100287 
L 363.176907 60.107294 
L 363.176907 59.815802 
L 358.758928 59.890253 
L 358.758928 59.897118 
L 358.758928 59.303856 
L 357.654433 59.316245 
L 357.654433 59.322462 
L 357.654433 59.023711 
L 355.813608 59.047313 
L 355.813608 59.053249 
L 355.813608 58.752 
L 354.709113 58.763198 
L 354.709113 58.768818 
L 354.709113 58.465754 
L 353.604619 58.476308 
L 353.604619 58.481604 
L 353.604619 57.871059 
L 352.131959 57.884812 
L 352.131959 57.889419 
L 352.131959 57.581534 
L 350.659299 57.594297 
L 350.659299 57.598572 
L 350.659299 57.288417 
L 340.718845 57.393231 
L 340.718845 57.397402 
L 340.718845 57.075825 
L 330.042062 57.18528 
L 330.042062 57.18934 
L 330.042062 56.854588 
L 318.997113 56.963917 
L 318.997113 56.967844 
L 308.688495 57.078182 
L 308.688495 57.082435 
L 299.116206 57.192902 
L 299.116206 57.197494 
L 294.698227 57.248931 
L 294.698227 57.253693 
L 294.698227 56.869161 
L 290.280247 56.916 
L 290.280247 56.920338 
L 290.280247 56.527448 
L 285.862268 56.569263 
L 285.862268 56.573137 
L 285.862268 56.17152 
L 273.712825 56.280931 
L 273.712825 56.284541 
L 262.667876 56.394799 
L 262.667876 56.398804 
L 252.727423 56.508179 
L 252.727423 56.512598 
L 243.891464 56.619 
L 243.891464 56.623843 
L 237.63266 56.704 
L 237.63266 56.709182 
L 237.63266 56.200308 
L 232.110186 56.260409 
L 232.110186 56.264837 
L 232.110186 55.737962 
L 220.328907 55.848753 
L 220.328907 55.852584 
L 210.388454 55.958606 
L 210.388454 55.962947 
L 210.388454 55.35954 
L 197.50268 55.467446 
L 197.50268 55.470911 
L 196.030021 55.481414 
L 196.030021 55.484952 
L 196.030021 54.816255 
L 176.149113 54.926222 
L 176.149113 54.928644 
L 161.054351 55.039548 
L 161.054351 55.042723 
L 149.273072 55.153721 
L 149.273072 55.15776 
L 140.068948 55.265416 
L 140.068948 55.2704 
L 132.337485 55.380293 
L 132.337485 55.386353 
L 126.07868 55.492085 
L 126.07868 55.499294 
L 120.556206 55.608971 
L 120.556206 55.617488 
L 115.770062 55.728 
L 115.770062 55.737962 
L 111.720247 55.84494 
L 111.720247 55.856432 
L 108.038598 55.967309 
L 108.038598 55.980522 
L 105.093278 56.078656 
L 105.093278 56.093538 
L 102.147959 56.204488 
L 102.147959 56.221377 
L 99.570804 56.328828 
L 99.570804 56.347826 
L 97.361814 56.448 
L 97.361814 56.469138 
L 95.52099 56.557714 
L 95.52099 56.580923 
L 94.04833 56.653307 
L 94.04833 56.6784 
L 94.04833 54.144 
L 57.6 54.144 
L 57.6 54.144 
" clip-path="url(#p89b6684cd0)" style="fill: none; stroke: #ffd700; stroke-width: 1.5; stroke-linecap: square"/>
   </g>
   <g id="line2d_14">
    <path d="M 414.72 236.777567 
L 414.72 221.945297 
L 413.402214 221.945297 
L 413.402214 222.154787 
L 413.402214 163.826017 
L 412.084428 163.826017 
L 412.084428 164.056926 
L 412.084428 132.326005 
L 410.766642 132.326005 
L 410.766642 132.527505 
L 410.766642 120.985319 
L 409.448856 120.985319 
L 409.448856 121.169455 
L 409.448856 119.616 
L 408.13107 119.616 
L 408.13107 119.798373 
L 408.13107 118.21591 
L 406.813284 118.21591 
L 406.813284 118.396394 
L 406.813284 105.897514 
L 405.495498 105.897514 
L 405.495498 106.053398 
L 405.495498 104.832 
L 404.177712 104.832 
L 404.177712 104.986067 
L 404.177712 84.658515 
L 402.859926 84.658515 
L 402.859926 84.760913 
L 402.859926 79.400907 
L 401.54214 79.400907 
L 401.54214 79.488 
L 401.54214 77.904 
L 400.224354 77.904 
L 400.224354 77.986787 
L 400.224354 77.184 
L 398.906568 77.184 
L 398.906568 77.264842 
L 398.906568 73.986278 
L 397.588782 73.986278 
L 397.588782 74.057143 
L 397.588782 73.220129 
L 394.95321 73.288748 
L 394.95321 73.357863 
L 394.95321 71.6544 
L 392.317638 71.718307 
L 392.317638 71.782681 
L 392.317638 70.915765 
L 389.682066 70.977653 
L 389.682066 71.04 
L 389.682066 70.160654 
L 387.046494 70.220418 
L 387.046494 70.280629 
L 384.410923 70.341293 
L 384.410923 70.402415 
L 381.775351 70.464 
L 381.775351 70.526053 
L 379.139779 70.58858 
L 379.139779 70.651586 
L 376.504207 70.715077 
L 376.504207 70.779058 
L 376.504207 67.064471 
L 372.550849 67.166609 
L 372.550849 67.218286 
L 368.597491 67.32288 
L 368.597491 67.375807 
L 368.597491 66.407226 
L 364.644133 66.506927 
L 364.644133 66.557388 
L 363.326347 66.557388 
L 363.326347 66.608262 
L 363.326347 65.616593 
L 362.008561 65.616593 
L 362.008561 65.664 
L 362.008561 64.660183 
L 359.372989 64.704 
L 359.372989 64.748184 
L 359.372989 62.698937 
L 354.101845 62.808615 
L 354.101845 62.845803 
L 350.148487 62.921143 
L 350.148487 62.959304 
L 350.148487 61.891074 
L 347.512915 61.925053 
L 347.512915 61.95933 
L 347.512915 59.776 
L 344.877343 59.801143 
L 344.877343 59.826511 
L 344.877343 58.710486 
L 340.923985 58.752 
L 340.923985 58.773041 
L 340.923985 57.631706 
L 331.699483 57.730415 
L 331.699483 57.747412 
L 322.474982 57.852878 
L 322.474982 57.871059 
L 314.568266 57.964704 
L 314.568266 57.984 
L 306.66155 58.083482 
L 306.66155 58.104 
L 298.754834 58.209882 
L 298.754834 58.231742 
L 293.48369 58.298754 
L 293.48369 58.321582 
L 293.48369 56.944442 
L 284.259188 57.040457 
L 284.259188 57.057103 
L 275.034686 57.161143 
L 275.034686 57.17921 
L 267.12797 57.272889 
L 267.12797 57.292323 
L 259.221255 57.393231 
L 259.221255 57.414194 
L 251.314539 57.5232 
L 251.314539 57.545879 
L 244.725609 57.639724 
L 244.725609 57.664 
L 238.136679 57.764571 
L 238.136679 57.790619 
L 231.547749 57.898667 
L 231.547749 57.926687 
L 226.276605 58.013313 
L 226.276605 58.043077 
L 221.005461 58.135181 
L 221.005461 58.166857 
L 215.734317 58.264976 
L 215.734317 58.298754 
L 210.463173 58.403496 
L 210.463173 58.439593 
L 206.509815 58.513655 
L 206.509815 58.551652 
L 202.556458 58.629664 
L 202.556458 58.669714 
L 198.6031 58.752 
L 198.6031 58.794275 
L 194.649742 58.881196 
L 194.649742 58.925887 
L 190.696384 59.017846 
L 190.696384 59.065165 
L 186.743026 59.162614 
L 186.743026 59.2128 
L 182.789668 59.316245 
L 182.789668 59.369567 
L 181.471882 59.369567 
L 181.471882 59.424 
L 181.471882 56.811789 
L 176.200738 56.898783 
L 176.200738 56.929055 
L 170.929594 57.024 
L 170.929594 57.057103 
L 165.65845 57.161143 
L 165.65845 57.197494 
L 165.65845 54.144 
L 57.6 54.144 
L 57.6 54.144 
" clip-path="url(#p89b6684cd0)" style="fill: none; stroke: #1f77b4; stroke-width: 1.5; stroke-linecap: square"/>
   </g>
   <g id="line2d_15">
    <path d="M 414.72 155.781278 
L 414.72 144.517953 
L 414.105336 144.517953 
L 414.105336 144.437274 
L 414.105336 140.163499 
L 413.490671 140.163499 
L 413.490671 140.070575 
L 413.490671 116.015123 
L 412.876007 116.015123 
L 412.876007 116.096 
L 412.876007 113.044398 
L 412.261343 113.044398 
L 412.261343 113.122723 
L 412.261343 94.413621 
L 411.646678 94.413621 
L 411.646678 94.472409 
L 411.646678 93.534968 
L 411.032014 93.534968 
L 411.032014 93.592811 
L 411.032014 80.946364 
L 409.802685 80.988112 
L 409.802685 81.029991 
L 409.802685 78.166749 
L 409.188021 78.166749 
L 409.188021 78.204759 
L 409.188021 77.841242 
L 408.573356 77.841242 
L 408.573356 77.878857 
L 408.573356 77.147312 
L 407.958692 77.147312 
L 407.958692 77.184 
L 407.958692 75.33191 
L 407.344028 75.33191 
L 407.344028 75.366029 
L 407.344028 74.615729 
L 406.729363 74.615729 
L 406.729363 74.648854 
L 406.729363 72.748894 
L 406.114699 72.748894 
L 406.114699 72.779294 
L 406.114699 72.394998 
L 405.500034 72.394998 
L 405.500034 72.424918 
L 405.500034 70.872713 
L 404.88537 70.872713 
L 404.88537 70.900364 
L 404.88537 67.728724 
L 404.270706 67.728724 
L 404.270706 67.751517 
L 404.270706 66.538199 
L 403.041377 66.559135 
L 403.041377 66.580142 
L 403.041377 66.171661 
L 401.197384 66.212571 
L 401.197384 66.233131 
L 401.197384 65.82127 
L 400.582719 65.82127 
L 400.582719 65.841231 
L 400.582719 61.20853 
L 399.968055 61.20853 
L 399.968055 61.220859 
L 399.968055 60.35794 
L 399.353391 60.35794 
L 399.353391 60.368842 
L 399.353391 59.934369 
L 398.738726 59.934369 
L 398.738726 59.944563 
L 398.738726 59.50781 
L 398.124062 59.50781 
L 398.124062 59.517286 
L 398.124062 59.07823 
L 393.206747 59.140129 
L 393.206747 59.149099 
L 393.206747 58.702273 
L 390.74809 58.727002 
L 390.74809 58.735304 
L 390.74809 58.283673 
L 381.528124 58.391598 
L 381.528124 58.399522 
L 377.840138 58.439593 
L 377.840138 58.447698 
L 377.840138 57.976741 
L 376.610809 57.984 
L 376.610809 57.991287 
L 376.610809 57.516776 
L 375.996145 57.516776 
L 375.996145 57.5232 
L 375.996145 57.045985 
L 363.702857 57.155168 
L 363.702857 57.161143 
L 358.785542 57.203638 
L 358.785542 57.209806 
L 358.785542 56.704 
L 350.180241 56.773046 
L 350.180241 56.778511 
L 350.180241 56.256 
L 339.730947 56.328828 
L 339.730947 56.333546 
L 339.730947 55.789714 
L 321.291015 55.899935 
L 321.291015 55.904 
L 305.309742 56.012108 
L 305.309742 56.016709 
L 299.163098 56.059164 
L 299.163098 56.064 
L 299.163098 55.427241 
L 279.493838 55.536527 
L 279.493838 55.540364 
L 272.117866 55.584 
L 272.117866 55.588103 
L 272.117866 54.868114 
L 243.22864 54.977684 
L 243.22864 54.980436 
L 221.100723 55.089672 
L 221.100723 55.093213 
L 203.89012 55.2 
L 203.89012 55.204418 
L 189.75284 55.311926 
L 189.75284 55.317333 
L 178.074217 55.424 
L 178.074217 55.430497 
L 168.239587 55.536527 
L 168.239587 55.544221 
L 159.634286 55.652571 
L 159.634286 55.661605 
L 152.258313 55.768615 
L 152.258313 55.779097 
L 146.11167 55.87989 
L 146.11167 55.891862 
L 140.57969 55.993927 
L 140.57969 56.007529 
L 135.662375 56.108651 
L 135.662375 56.124 
L 131.359725 56.221377 
L 131.359725 56.238545 
L 127.057074 56.347826 
L 127.057074 56.367158 
L 123.369088 56.469138 
L 123.369088 56.490667 
L 120.295766 56.580923 
L 120.295766 56.604583 
L 118.451773 56.653307 
L 118.451773 56.6784 
L 118.451773 54.144 
L 57.6 54.144 
L 57.6 54.144 
" clip-path="url(#p89b6684cd0)" style="fill: none; stroke: #ff7f0e; stroke-width: 1.5; stroke-linecap: square"/>
   </g>
   <g id="line2d_16">
    <path d="M 414.72 276.753155 
L 414.72 237.546717 
L 411.693559 237.546717 
L 411.693559 237.977239 
L 411.693559 141.927687 
L 408.667119 141.927687 
L 408.667119 142.420854 
L 408.667119 104.832 
L 405.640678 104.832 
L 405.640678 105.184 
L 405.640678 91.690667 
L 402.614237 91.690667 
L 402.614237 91.970866 
L 402.614237 78.281143 
L 399.587797 78.281143 
L 399.587797 78.47424 
L 396.561356 78.47424 
L 396.561356 78.670452 
L 393.534915 78.670452 
L 393.534915 78.869854 
L 390.508475 78.869854 
L 390.508475 79.072525 
L 387.482034 79.072525 
L 387.482034 79.278545 
L 387.482034 73.474169 
L 384.455593 73.474169 
L 384.455593 73.639385 
L 384.455593 71.622621 
L 381.429153 71.622621 
L 381.429153 71.774609 
L 381.429153 65.458286 
L 378.402712 65.458286 
L 378.402712 65.560216 
L 378.402712 63.36 
L 375.376271 63.36 
L 375.376271 63.44455 
L 375.376271 61.184 
L 369.32339 61.249794 
L 369.32339 61.31683 
L 363.270508 61.385143 
L 363.270508 61.454769 
L 357.217627 61.525748 
L 357.217627 61.598118 
L 351.164746 61.671921 
L 351.164746 61.7472 
L 348.138305 61.7472 
L 348.138305 61.824 
L 348.138305 59.316245 
L 339.058983 59.424 
L 339.058983 59.479579 
L 333.006102 59.53634 
L 333.006102 59.594323 
L 326.95322 59.653565 
L 326.95322 59.71411 
L 320.900339 59.776 
L 320.900339 59.839281 
L 314.847458 59.904 
L 314.847458 59.970207 
L 311.821017 59.970207 
L 311.821017 60.037953 
L 311.821017 57.125647 
L 299.715254 57.234732 
L 299.715254 57.272889 
L 290.635932 57.352101 
L 290.635932 57.393231 
L 281.55661 57.478737 
L 281.55661 57.5232 
L 272.477288 57.615781 
L 272.477288 57.664 
L 263.397966 57.764571 
L 263.397966 57.817043 
L 254.318644 57.926687 
L 254.318644 57.984 
L 248.265763 58.043077 
L 248.265763 58.104 
L 242.212881 58.166857 
L 242.212881 58.231742 
L 236.16 58.298754 
L 236.16 58.368 
L 230.107119 58.439593 
L 230.107119 58.513655 
L 224.054237 58.590316 
L 224.054237 58.669714 
L 218.001356 58.752 
L 218.001356 58.837333 
L 211.948475 58.925887 
L 211.948475 59.017846 
L 205.895593 59.113412 
L 205.895593 59.2128 
L 199.842712 59.316245 
L 199.842712 59.424 
L 196.816271 59.424 
L 196.816271 59.53634 
L 193.789831 59.53634 
L 193.789831 59.653565 
L 190.76339 59.653565 
L 190.76339 59.776 
L 187.736949 59.776 
L 187.736949 59.904 
L 184.710508 59.904 
L 184.710508 60.037953 
L 181.684068 60.037953 
L 181.684068 60.178286 
L 178.657627 60.178286 
L 178.657627 60.325463 
L 175.631186 60.325463 
L 175.631186 60.48 
L 172.604746 60.48 
L 172.604746 60.642462 
L 172.604746 54.144 
L 57.6 54.144 
L 57.6 54.144 
" clip-path="url(#p89b6684cd0)" style="fill: none; stroke: #2ca02c; stroke-width: 1.5; stroke-linecap: square"/>
   </g>
   <g id="patch_3">
    <path d="M 57.6 307.584 
L 57.6 41.472 
" style="fill: none; stroke: #000000; stroke-width: 0.8; stroke-linejoin: miter; stroke-linecap: square"/>
   </g>
   <g id="patch_4">
    <path d="M 414.72 307.584 
L 414.72 41.472 
" style="fill: none; stroke: #000000; stroke-width: 0.8; stroke-linejoin: miter; stroke-linecap: square"/>
   </g>
   <g id="patch_5">
    <path d="M 57.6 307.584 
L 414.72 307.584 
" style="fill: none; stroke: #000000; stroke-width: 0.8; stroke-linejoin: miter; stroke-linecap: square"/>
   </g>
   <g id="patch_6">
    <path d="M 57.6 41.472 
L 414.72 41.472 
" style="fill: none; stroke: #000000; stroke-width: 0.8; stroke-linejoin: miter; stroke-linecap: square"/>
   </g>
   <g id="text_15">
    <!-- Extension of Precision-Recall curve to multi-class -->
    <g transform="translate(89.326875 35.472) scale(0.12 -0.12)">
     <defs>
      <path id="DejaVuSans-45" d="M 628 4666 
L 3578 4666 
L 3578 4134 
L 1259 4134 
L 1259 2753 
L 3481 2753 
L 3481 2222 
L 1259 2222 
L 1259 531 
L 3634 531 
L 3634 0 
L 628 0 
L 628 4666 
z
" transform="scale(0.015625)"/>
      <path id="DejaVuSans-78" d="M 3513 3500 
L 2247 1797 
L 3578 0 
L 2900 0 
L 1881 1375 
L 863 0 
L 184 0 
L 1544 1831 
L 300 3500 
L 978 3500 
L 1906 2253 
L 2834 3500 
L 3513 3500 
z
" transform="scale(0.015625)"/>
      <path id="DejaVuSans-74" d="M 1172 4494 
L 1172 3500 
L 2356 3500 
L 2356 3053 
L 1172 3053 
L 1172 1153 
Q 1172 725 1289 603 
Q 1406 481 1766 481 
L 2356 481 
L 2356 0 
L 1766 0 
Q 1100 0 847 248 
Q 594 497 594 1153 
L 594 3053 
L 172 3053 
L 172 3500 
L 594 3500 
L 594 4494 
L 1172 4494 
z
" transform="scale(0.015625)"/>
      <path id="DejaVuSans-20" transform="scale(0.015625)"/>
      <path id="DejaVuSans-66" d="M 2375 4863 
L 2375 4384 
L 1825 4384 
Q 1516 4384 1395 4259 
Q 1275 4134 1275 3809 
L 1275 3500 
L 2222 3500 
L 2222 3053 
L 1275 3053 
L 1275 0 
L 697 0 
L 697 3053 
L 147 3053 
L 147 3500 
L 697 3500 
L 697 3744 
Q 697 4328 969 4595 
Q 1241 4863 1831 4863 
L 2375 4863 
z
" transform="scale(0.015625)"/>
      <path id="DejaVuSans-2d" d="M 313 2009 
L 1997 2009 
L 1997 1497 
L 313 1497 
L 313 2009 
z
" transform="scale(0.015625)"/>
      <path id="DejaVuSans-75" d="M 544 1381 
L 544 3500 
L 1119 3500 
L 1119 1403 
Q 1119 906 1312 657 
Q 1506 409 1894 409 
Q 2359 409 2629 706 
Q 2900 1003 2900 1516 
L 2900 3500 
L 3475 3500 
L 3475 0 
L 2900 0 
L 2900 538 
Q 2691 219 2414 64 
Q 2138 -91 1772 -91 
Q 1169 -91 856 284 
Q 544 659 544 1381 
z
M 1991 3584 
L 1991 3584 
z
" transform="scale(0.015625)"/>
      <path id="DejaVuSans-76" d="M 191 3500 
L 800 3500 
L 1894 563 
L 2988 3500 
L 3597 3500 
L 2284 0 
L 1503 0 
L 191 3500 
z
" transform="scale(0.015625)"/>
      <path id="DejaVuSans-6d" d="M 3328 2828 
Q 3544 3216 3844 3400 
Q 4144 3584 4550 3584 
Q 5097 3584 5394 3201 
Q 5691 2819 5691 2113 
L 5691 0 
L 5113 0 
L 5113 2094 
Q 5113 2597 4934 2840 
Q 4756 3084 4391 3084 
Q 3944 3084 3684 2787 
Q 3425 2491 3425 1978 
L 3425 0 
L 2847 0 
L 2847 2094 
Q 2847 2600 2669 2842 
Q 2491 3084 2119 3084 
Q 1678 3084 1418 2786 
Q 1159 2488 1159 1978 
L 1159 0 
L 581 0 
L 581 3500 
L 1159 3500 
L 1159 2956 
Q 1356 3278 1631 3431 
Q 1906 3584 2284 3584 
Q 2666 3584 2933 3390 
Q 3200 3197 3328 2828 
z
" transform="scale(0.015625)"/>
     </defs>
     <use xlink:href="#DejaVuSans-45"/>
     <use xlink:href="#DejaVuSans-78" x="63.183594"/>
     <use xlink:href="#DejaVuSans-74" x="122.363281"/>
     <use xlink:href="#DejaVuSans-65" x="161.572266"/>
     <use xlink:href="#DejaVuSans-6e" x="223.095703"/>
     <use xlink:href="#DejaVuSans-73" x="286.474609"/>
     <use xlink:href="#DejaVuSans-69" x="338.574219"/>
     <use xlink:href="#DejaVuSans-6f" x="366.357422"/>
     <use xlink:href="#DejaVuSans-6e" x="427.539062"/>
     <use xlink:href="#DejaVuSans-20" x="490.917969"/>
     <use xlink:href="#DejaVuSans-6f" x="522.705078"/>
     <use xlink:href="#DejaVuSans-66" x="583.886719"/>
     <use xlink:href="#DejaVuSans-20" x="619.091797"/>
     <use xlink:href="#DejaVuSans-50" x="650.878906"/>
     <use xlink:href="#DejaVuSans-72" x="709.431641"/>
     <use xlink:href="#DejaVuSans-65" x="748.294922"/>
     <use xlink:href="#DejaVuSans-63" x="809.818359"/>
     <use xlink:href="#DejaVuSans-69" x="864.798828"/>
     <use xlink:href="#DejaVuSans-73" x="892.582031"/>
     <use xlink:href="#DejaVuSans-69" x="944.681641"/>
     <use xlink:href="#DejaVuSans-6f" x="972.464844"/>
     <use xlink:href="#DejaVuSans-6e" x="1033.646484"/>
     <use xlink:href="#DejaVuSans-2d" x="1097.025391"/>
     <use xlink:href="#DejaVuSans-52" x="1133.109375"/>
     <use xlink:href="#DejaVuSans-65" x="1198.091797"/>
     <use xlink:href="#DejaVuSans-63" x="1259.615234"/>
     <use xlink:href="#DejaVuSans-61" x="1314.595703"/>
     <use xlink:href="#DejaVuSans-6c" x="1375.875"/>
     <use xlink:href="#DejaVuSans-6c" x="1403.658203"/>
     <use xlink:href="#DejaVuSans-20" x="1431.441406"/>
     <use xlink:href="#DejaVuSans-63" x="1463.228516"/>
     <use xlink:href="#DejaVuSans-75" x="1518.208984"/>
     <use xlink:href="#DejaVuSans-72" x="1581.587891"/>
     <use xlink:href="#DejaVuSans-76" x="1622.701172"/>
     <use xlink:href="#DejaVuSans-65" x="1681.880859"/>
     <use xlink:href="#DejaVuSans-20" x="1743.404297"/>
     <use xlink:href="#DejaVuSans-74" x="1775.191406"/>
     <use xlink:href="#DejaVuSans-6f" x="1814.400391"/>
     <use xlink:href="#DejaVuSans-20" x="1875.582031"/>
     <use xlink:href="#DejaVuSans-6d" x="1907.369141"/>
     <use xlink:href="#DejaVuSans-75" x="2004.78125"/>
     <use xlink:href="#DejaVuSans-6c" x="2068.160156"/>
     <use xlink:href="#DejaVuSans-74" x="2095.943359"/>
     <use xlink:href="#DejaVuSans-69" x="2135.152344"/>
     <use xlink:href="#DejaVuSans-2d" x="2162.935547"/>
     <use xlink:href="#DejaVuSans-63" x="2199.019531"/>
     <use xlink:href="#DejaVuSans-6c" x="2254"/>
     <use xlink:href="#DejaVuSans-61" x="2281.783203"/>
     <use xlink:href="#DejaVuSans-73" x="2343.0625"/>
     <use xlink:href="#DejaVuSans-73" x="2395.162109"/>
    </g>
   </g>
   <g id="legend_1">
    <g id="patch_7">
     <path d="M 64.6 302.584 
L 308.214063 302.584 
Q 310.214063 302.584 310.214063 300.584 
L 310.214063 242.8715 
Q 310.214063 240.8715 308.214063 240.8715 
L 64.6 240.8715 
Q 62.6 240.8715 62.6 242.8715 
L 62.6 300.584 
Q 62.6 302.584 64.6 302.584 
z
" style="fill: #ffffff; opacity: 0.8; stroke: #cccccc; stroke-linejoin: miter"/>
    </g>
    <g id="line2d_17">
     <path d="M 66.6 248.969937 
L 76.6 248.969937 
L 76.6 248.969937 
L 86.6 248.969937 
L 86.6 248.969937 
" style="fill: none; stroke: #ffd700; stroke-width: 1.5; stroke-linecap: square"/>
    </g>
    <g id="text_16">
     <!-- Micro-average precision-recall (AP = 0.98) -->
     <g transform="translate(94.6 252.469937) scale(0.1 -0.1)">
      <defs>
       <path id="DejaVuSans-4d" d="M 628 4666 
L 1569 4666 
L 2759 1491 
L 3956 4666 
L 4897 4666 
L 4897 0 
L 4281 0 
L 4281 4097 
L 3078 897 
L 2444 897 
L 1241 4097 
L 1241 0 
L 628 0 
L 628 4666 
z
" transform="scale(0.015625)"/>
       <path id="DejaVuSans-67" d="M 2906 1791 
Q 2906 2416 2648 2759 
Q 2391 3103 1925 3103 
Q 1463 3103 1205 2759 
Q 947 2416 947 1791 
Q 947 1169 1205 825 
Q 1463 481 1925 481 
Q 2391 481 2648 825 
Q 2906 1169 2906 1791 
z
M 3481 434 
Q 3481 -459 3084 -895 
Q 2688 -1331 1869 -1331 
Q 1566 -1331 1297 -1286 
Q 1028 -1241 775 -1147 
L 775 -588 
Q 1028 -725 1275 -790 
Q 1522 -856 1778 -856 
Q 2344 -856 2625 -561 
Q 2906 -266 2906 331 
L 2906 616 
Q 2728 306 2450 153 
Q 2172 0 1784 0 
Q 1141 0 747 490 
Q 353 981 353 1791 
Q 353 2603 747 3093 
Q 1141 3584 1784 3584 
Q 2172 3584 2450 3431 
Q 2728 3278 2906 2969 
L 2906 3500 
L 3481 3500 
L 3481 434 
z
" transform="scale(0.015625)"/>
       <path id="DejaVuSans-70" d="M 1159 525 
L 1159 -1331 
L 581 -1331 
L 581 3500 
L 1159 3500 
L 1159 2969 
Q 1341 3281 1617 3432 
Q 1894 3584 2278 3584 
Q 2916 3584 3314 3078 
Q 3713 2572 3713 1747 
Q 3713 922 3314 415 
Q 2916 -91 2278 -91 
Q 1894 -91 1617 61 
Q 1341 213 1159 525 
z
M 3116 1747 
Q 3116 2381 2855 2742 
Q 2594 3103 2138 3103 
Q 1681 3103 1420 2742 
Q 1159 2381 1159 1747 
Q 1159 1113 1420 752 
Q 1681 391 2138 391 
Q 2594 391 2855 752 
Q 3116 1113 3116 1747 
z
" transform="scale(0.015625)"/>
       <path id="DejaVuSans-28" d="M 1984 4856 
Q 1566 4138 1362 3434 
Q 1159 2731 1159 2009 
Q 1159 1288 1364 580 
Q 1569 -128 1984 -844 
L 1484 -844 
Q 1016 -109 783 600 
Q 550 1309 550 2009 
Q 550 2706 781 3412 
Q 1013 4119 1484 4856 
L 1984 4856 
z
" transform="scale(0.015625)"/>
       <path id="DejaVuSans-41" d="M 2188 4044 
L 1331 1722 
L 3047 1722 
L 2188 4044 
z
M 1831 4666 
L 2547 4666 
L 4325 0 
L 3669 0 
L 3244 1197 
L 1141 1197 
L 716 0 
L 50 0 
L 1831 4666 
z
" transform="scale(0.015625)"/>
       <path id="DejaVuSans-3d" d="M 678 2906 
L 4684 2906 
L 4684 2381 
L 678 2381 
L 678 2906 
z
M 678 1631 
L 4684 1631 
L 4684 1100 
L 678 1100 
L 678 1631 
z
" transform="scale(0.015625)"/>
       <path id="DejaVuSans-39" d="M 703 97 
L 703 672 
Q 941 559 1184 500 
Q 1428 441 1663 441 
Q 2288 441 2617 861 
Q 2947 1281 2994 2138 
Q 2813 1869 2534 1725 
Q 2256 1581 1919 1581 
Q 1219 1581 811 2004 
Q 403 2428 403 3163 
Q 403 3881 828 4315 
Q 1253 4750 1959 4750 
Q 2769 4750 3195 4129 
Q 3622 3509 3622 2328 
Q 3622 1225 3098 567 
Q 2575 -91 1691 -91 
Q 1453 -91 1209 -44 
Q 966 3 703 97 
z
M 1959 2075 
Q 2384 2075 2632 2365 
Q 2881 2656 2881 3163 
Q 2881 3666 2632 3958 
Q 2384 4250 1959 4250 
Q 1534 4250 1286 3958 
Q 1038 3666 1038 3163 
Q 1038 2656 1286 2365 
Q 1534 2075 1959 2075 
z
" transform="scale(0.015625)"/>
       <path id="DejaVuSans-29" d="M 513 4856 
L 1013 4856 
Q 1481 4119 1714 3412 
Q 1947 2706 1947 2009 
Q 1947 1309 1714 600 
Q 1481 -109 1013 -844 
L 513 -844 
Q 928 -128 1133 580 
Q 1338 1288 1338 2009 
Q 1338 2731 1133 3434 
Q 928 4138 513 4856 
z
" transform="scale(0.015625)"/>
      </defs>
      <use xlink:href="#DejaVuSans-4d"/>
      <use xlink:href="#DejaVuSans-69" x="86.279297"/>
      <use xlink:href="#DejaVuSans-63" x="114.0625"/>
      <use xlink:href="#DejaVuSans-72" x="169.042969"/>
      <use xlink:href="#DejaVuSans-6f" x="207.90625"/>
      <use xlink:href="#DejaVuSans-2d" x="270.962891"/>
      <use xlink:href="#DejaVuSans-61" x="307.046875"/>
      <use xlink:href="#DejaVuSans-76" x="368.326172"/>
      <use xlink:href="#DejaVuSans-65" x="427.505859"/>
      <use xlink:href="#DejaVuSans-72" x="489.029297"/>
      <use xlink:href="#DejaVuSans-61" x="530.142578"/>
      <use xlink:href="#DejaVuSans-67" x="591.421875"/>
      <use xlink:href="#DejaVuSans-65" x="654.898438"/>
      <use xlink:href="#DejaVuSans-20" x="716.421875"/>
      <use xlink:href="#DejaVuSans-70" x="748.208984"/>
      <use xlink:href="#DejaVuSans-72" x="811.685547"/>
      <use xlink:href="#DejaVuSans-65" x="850.548828"/>
      <use xlink:href="#DejaVuSans-63" x="912.072266"/>
      <use xlink:href="#DejaVuSans-69" x="967.052734"/>
      <use xlink:href="#DejaVuSans-73" x="994.835938"/>
      <use xlink:href="#DejaVuSans-69" x="1046.935547"/>
      <use xlink:href="#DejaVuSans-6f" x="1074.71875"/>
      <use xlink:href="#DejaVuSans-6e" x="1135.900391"/>
      <use xlink:href="#DejaVuSans-2d" x="1199.279297"/>
      <use xlink:href="#DejaVuSans-72" x="1235.363281"/>
      <use xlink:href="#DejaVuSans-65" x="1274.226562"/>
      <use xlink:href="#DejaVuSans-63" x="1335.75"/>
      <use xlink:href="#DejaVuSans-61" x="1390.730469"/>
      <use xlink:href="#DejaVuSans-6c" x="1452.009766"/>
      <use xlink:href="#DejaVuSans-6c" x="1479.792969"/>
      <use xlink:href="#DejaVuSans-20" x="1507.576172"/>
      <use xlink:href="#DejaVuSans-28" x="1539.363281"/>
      <use xlink:href="#DejaVuSans-41" x="1578.376953"/>
      <use xlink:href="#DejaVuSans-50" x="1646.785156"/>
      <use xlink:href="#DejaVuSans-20" x="1707.087891"/>
      <use xlink:href="#DejaVuSans-3d" x="1738.875"/>
      <use xlink:href="#DejaVuSans-20" x="1822.664062"/>
      <use xlink:href="#DejaVuSans-30" x="1854.451172"/>
      <use xlink:href="#DejaVuSans-2e" x="1918.074219"/>
      <use xlink:href="#DejaVuSans-39" x="1949.861328"/>
      <use xlink:href="#DejaVuSans-38" x="2013.484375"/>
      <use xlink:href="#DejaVuSans-29" x="2077.107422"/>
     </g>
    </g>
    <g id="line2d_18">
     <path d="M 66.6 263.648062 
L 76.6 263.648062 
L 76.6 263.648062 
L 86.6 263.648062 
L 86.6 263.648062 
" style="fill: none; stroke: #1f77b4; stroke-width: 1.5; stroke-linecap: square"/>
    </g>
    <g id="text_17">
     <!-- Precision-recall for class 0 (AP = 0.97) -->
     <g transform="translate(94.6 267.148062) scale(0.1 -0.1)">
      <defs>
       <path id="DejaVuSans-37" d="M 525 4666 
L 3525 4666 
L 3525 4397 
L 1831 0 
L 1172 0 
L 2766 4134 
L 525 4134 
L 525 4666 
z
" transform="scale(0.015625)"/>
      </defs>
      <use xlink:href="#DejaVuSans-50"/>
      <use xlink:href="#DejaVuSans-72" x="58.552734"/>
      <use xlink:href="#DejaVuSans-65" x="97.416016"/>
      <use xlink:href="#DejaVuSans-63" x="158.939453"/>
      <use xlink:href="#DejaVuSans-69" x="213.919922"/>
      <use xlink:href="#DejaVuSans-73" x="241.703125"/>
      <use xlink:href="#DejaVuSans-69" x="293.802734"/>
      <use xlink:href="#DejaVuSans-6f" x="321.585938"/>
      <use xlink:href="#DejaVuSans-6e" x="382.767578"/>
      <use xlink:href="#DejaVuSans-2d" x="446.146484"/>
      <use xlink:href="#DejaVuSans-72" x="482.230469"/>
      <use xlink:href="#DejaVuSans-65" x="521.09375"/>
      <use xlink:href="#DejaVuSans-63" x="582.617188"/>
      <use xlink:href="#DejaVuSans-61" x="637.597656"/>
      <use xlink:href="#DejaVuSans-6c" x="698.876953"/>
      <use xlink:href="#DejaVuSans-6c" x="726.660156"/>
      <use xlink:href="#DejaVuSans-20" x="754.443359"/>
      <use xlink:href="#DejaVuSans-66" x="786.230469"/>
      <use xlink:href="#DejaVuSans-6f" x="821.435547"/>
      <use xlink:href="#DejaVuSans-72" x="882.617188"/>
      <use xlink:href="#DejaVuSans-20" x="923.730469"/>
      <use xlink:href="#DejaVuSans-63" x="955.517578"/>
      <use xlink:href="#DejaVuSans-6c" x="1010.498047"/>
      <use xlink:href="#DejaVuSans-61" x="1038.28125"/>
      <use xlink:href="#DejaVuSans-73" x="1099.560547"/>
      <use xlink:href="#DejaVuSans-73" x="1151.660156"/>
      <use xlink:href="#DejaVuSans-20" x="1203.759766"/>
      <use xlink:href="#DejaVuSans-30" x="1235.546875"/>
      <use xlink:href="#DejaVuSans-20" x="1299.169922"/>
      <use xlink:href="#DejaVuSans-28" x="1330.957031"/>
      <use xlink:href="#DejaVuSans-41" x="1369.970703"/>
      <use xlink:href="#DejaVuSans-50" x="1438.378906"/>
      <use xlink:href="#DejaVuSans-20" x="1498.681641"/>
      <use xlink:href="#DejaVuSans-3d" x="1530.46875"/>
      <use xlink:href="#DejaVuSans-20" x="1614.257812"/>
      <use xlink:href="#DejaVuSans-30" x="1646.044922"/>
      <use xlink:href="#DejaVuSans-2e" x="1709.667969"/>
      <use xlink:href="#DejaVuSans-39" x="1741.455078"/>
      <use xlink:href="#DejaVuSans-37" x="1805.078125"/>
      <use xlink:href="#DejaVuSans-29" x="1868.701172"/>
     </g>
    </g>
    <g id="line2d_19">
     <path d="M 66.6 278.326187 
L 76.6 278.326187 
L 76.6 278.326187 
L 86.6 278.326187 
L 86.6 278.326187 
" style="fill: none; stroke: #ff7f0e; stroke-width: 1.5; stroke-linecap: square"/>
    </g>
    <g id="text_18">
     <!-- Precision-recall for class 1 (AP = 0.99) -->
     <g transform="translate(94.6 281.826187) scale(0.1 -0.1)">
      <use xlink:href="#DejaVuSans-50"/>
      <use xlink:href="#DejaVuSans-72" x="58.552734"/>
      <use xlink:href="#DejaVuSans-65" x="97.416016"/>
      <use xlink:href="#DejaVuSans-63" x="158.939453"/>
      <use xlink:href="#DejaVuSans-69" x="213.919922"/>
      <use xlink:href="#DejaVuSans-73" x="241.703125"/>
      <use xlink:href="#DejaVuSans-69" x="293.802734"/>
      <use xlink:href="#DejaVuSans-6f" x="321.585938"/>
      <use xlink:href="#DejaVuSans-6e" x="382.767578"/>
      <use xlink:href="#DejaVuSans-2d" x="446.146484"/>
      <use xlink:href="#DejaVuSans-72" x="482.230469"/>
      <use xlink:href="#DejaVuSans-65" x="521.09375"/>
      <use xlink:href="#DejaVuSans-63" x="582.617188"/>
      <use xlink:href="#DejaVuSans-61" x="637.597656"/>
      <use xlink:href="#DejaVuSans-6c" x="698.876953"/>
      <use xlink:href="#DejaVuSans-6c" x="726.660156"/>
      <use xlink:href="#DejaVuSans-20" x="754.443359"/>
      <use xlink:href="#DejaVuSans-66" x="786.230469"/>
      <use xlink:href="#DejaVuSans-6f" x="821.435547"/>
      <use xlink:href="#DejaVuSans-72" x="882.617188"/>
      <use xlink:href="#DejaVuSans-20" x="923.730469"/>
      <use xlink:href="#DejaVuSans-63" x="955.517578"/>
      <use xlink:href="#DejaVuSans-6c" x="1010.498047"/>
      <use xlink:href="#DejaVuSans-61" x="1038.28125"/>
      <use xlink:href="#DejaVuSans-73" x="1099.560547"/>
      <use xlink:href="#DejaVuSans-73" x="1151.660156"/>
      <use xlink:href="#DejaVuSans-20" x="1203.759766"/>
      <use xlink:href="#DejaVuSans-31" x="1235.546875"/>
      <use xlink:href="#DejaVuSans-20" x="1299.169922"/>
      <use xlink:href="#DejaVuSans-28" x="1330.957031"/>
      <use xlink:href="#DejaVuSans-41" x="1369.970703"/>
      <use xlink:href="#DejaVuSans-50" x="1438.378906"/>
      <use xlink:href="#DejaVuSans-20" x="1498.681641"/>
      <use xlink:href="#DejaVuSans-3d" x="1530.46875"/>
      <use xlink:href="#DejaVuSans-20" x="1614.257812"/>
      <use xlink:href="#DejaVuSans-30" x="1646.044922"/>
      <use xlink:href="#DejaVuSans-2e" x="1709.667969"/>
      <use xlink:href="#DejaVuSans-39" x="1741.455078"/>
      <use xlink:href="#DejaVuSans-39" x="1805.078125"/>
      <use xlink:href="#DejaVuSans-29" x="1868.701172"/>
     </g>
    </g>
    <g id="line2d_20">
     <path d="M 66.6 293.004312 
L 76.6 293.004312 
L 76.6 293.004312 
L 86.6 293.004312 
L 86.6 293.004312 
" style="fill: none; stroke: #2ca02c; stroke-width: 1.5; stroke-linecap: square"/>
    </g>
    <g id="text_19">
     <!-- Precision-recall for class 2 (AP = 0.97) -->
     <g transform="translate(94.6 296.504312) scale(0.1 -0.1)">
      <use xlink:href="#DejaVuSans-50"/>
      <use xlink:href="#DejaVuSans-72" x="58.552734"/>
      <use xlink:href="#DejaVuSans-65" x="97.416016"/>
      <use xlink:href="#DejaVuSans-63" x="158.939453"/>
      <use xlink:href="#DejaVuSans-69" x="213.919922"/>
      <use xlink:href="#DejaVuSans-73" x="241.703125"/>
      <use xlink:href="#DejaVuSans-69" x="293.802734"/>
      <use xlink:href="#DejaVuSans-6f" x="321.585938"/>
      <use xlink:href="#DejaVuSans-6e" x="382.767578"/>
      <use xlink:href="#DejaVuSans-2d" x="446.146484"/>
      <use xlink:href="#DejaVuSans-72" x="482.230469"/>
      <use xlink:href="#DejaVuSans-65" x="521.09375"/>
      <use xlink:href="#DejaVuSans-63" x="582.617188"/>
      <use xlink:href="#DejaVuSans-61" x="637.597656"/>
      <use xlink:href="#DejaVuSans-6c" x="698.876953"/>
      <use xlink:href="#DejaVuSans-6c" x="726.660156"/>
      <use xlink:href="#DejaVuSans-20" x="754.443359"/>
      <use xlink:href="#DejaVuSans-66" x="786.230469"/>
      <use xlink:href="#DejaVuSans-6f" x="821.435547"/>
      <use xlink:href="#DejaVuSans-72" x="882.617188"/>
      <use xlink:href="#DejaVuSans-20" x="923.730469"/>
      <use xlink:href="#DejaVuSans-63" x="955.517578"/>
      <use xlink:href="#DejaVuSans-6c" x="1010.498047"/>
      <use xlink:href="#DejaVuSans-61" x="1038.28125"/>
      <use xlink:href="#DejaVuSans-73" x="1099.560547"/>
      <use xlink:href="#DejaVuSans-73" x="1151.660156"/>
      <use xlink:href="#DejaVuSans-20" x="1203.759766"/>
      <use xlink:href="#DejaVuSans-32" x="1235.546875"/>
      <use xlink:href="#DejaVuSans-20" x="1299.169922"/>
      <use xlink:href="#DejaVuSans-28" x="1330.957031"/>
      <use xlink:href="#DejaVuSans-41" x="1369.970703"/>
      <use xlink:href="#DejaVuSans-50" x="1438.378906"/>
      <use xlink:href="#DejaVuSans-20" x="1498.681641"/>
      <use xlink:href="#DejaVuSans-3d" x="1530.46875"/>
      <use xlink:href="#DejaVuSans-20" x="1614.257812"/>
      <use xlink:href="#DejaVuSans-30" x="1646.044922"/>
      <use xlink:href="#DejaVuSans-2e" x="1709.667969"/>
      <use xlink:href="#DejaVuSans-39" x="1741.455078"/>
      <use xlink:href="#DejaVuSans-37" x="1805.078125"/>
      <use xlink:href="#DejaVuSans-29" x="1868.701172"/>
     </g>
    </g>
   </g>
  </g>
 </g>
 <defs>
  <clipPath id="p89b6684cd0">
   <rect x="57.6" y="41.472" width="357.12" height="266.112"/>
  </clipPath>
 </defs>
</svg>
