<?xml version="1.0" encoding="utf-8" standalone="no"?>
<!DOCTYPE svg PUBLIC "-//W3C//DTD SVG 1.1//EN"
  "http://www.w3.org/Graphics/SVG/1.1/DTD/svg11.dtd">
<svg xmlns:xlink="http://www.w3.org/1999/xlink" width="432pt" height="288pt" viewBox="0 0 432 288" xmlns="http://www.w3.org/2000/svg" version="1.1">
 <metadata>
  <rdf:RDF xmlns:dc="http://purl.org/dc/elements/1.1/" xmlns:cc="http://creativecommons.org/ns#" xmlns:rdf="http://www.w3.org/1999/02/22-rdf-syntax-ns#">
   <cc:Work>
    <dc:type rdf:resource="http://purl.org/dc/dcmitype/StillImage"/>
    <dc:date>2022-05-28T12:06:30.548500</dc:date>
    <dc:format>image/svg+xml</dc:format>
    <dc:creator>
     <cc:Agent>
      <dc:title>Matplotlib v3.5.1, https://matplotlib.org/</dc:title>
     </cc:Agent>
    </dc:creator>
   </cc:Work>
  </rdf:RDF>
 </metadata>
 <defs>
  <style type="text/css">*{stroke-linejoin: round; stroke-linecap: butt}</style>
 </defs>
 <g id="figure_1">
  <g id="patch_1">
   <path d="M 0 288 
L 432 288 
L 432 0 
L 0 0 
L 0 288 
z
" style="fill: none"/>
  </g>
  <g id="axes_1">
   <g id="patch_2">
    <path d="M 54 252 
L 388.8 252 
L 388.8 34.56 
L 54 34.56 
z
" style="fill: #ffffff"/>
   </g>
   <g id="matplotlib.axis_1">
    <g id="xtick_1">
     <g id="line2d_1">
      <defs>
       <path id="m76158b3255" d="M 0 0 
L 0 3.5 
" style="stroke: #000000; stroke-width: 0.8"/>
      </defs>
      <g>
       <use xlink:href="#m76158b3255" x="80.699515" y="252" style="stroke: #000000; stroke-width: 0.8"/>
      </g>
     </g>
     <g id="text_1">
      <!-- 2015 -->
      <g transform="translate(67.974515 266.598437)scale(0.1 -0.1)">
       <defs>
        <path id="DejaVuSans-32" d="M 1228 531 
L 3431 531 
L 3431 0 
L 469 0 
L 469 531 
Q 828 903 1448 1529 
Q 2069 2156 2228 2338 
Q 2531 2678 2651 2914 
Q 2772 3150 2772 3378 
Q 2772 3750 2511 3984 
Q 2250 4219 1831 4219 
Q 1534 4219 1204 4116 
Q 875 4013 500 3803 
L 500 4441 
Q 881 4594 1212 4672 
Q 1544 4750 1819 4750 
Q 2544 4750 2975 4387 
Q 3406 4025 3406 3419 
Q 3406 3131 3298 2873 
Q 3191 2616 2906 2266 
Q 2828 2175 2409 1742 
Q 1991 1309 1228 531 
z
" transform="scale(0.015625)"/>
        <path id="DejaVuSans-30" d="M 2034 4250 
Q 1547 4250 1301 3770 
Q 1056 3291 1056 2328 
Q 1056 1369 1301 889 
Q 1547 409 2034 409 
Q 2525 409 2770 889 
Q 3016 1369 3016 2328 
Q 3016 3291 2770 3770 
Q 2525 4250 2034 4250 
z
M 2034 4750 
Q 2819 4750 3233 4129 
Q 3647 3509 3647 2328 
Q 3647 1150 3233 529 
Q 2819 -91 2034 -91 
Q 1250 -91 836 529 
Q 422 1150 422 2328 
Q 422 3509 836 4129 
Q 1250 4750 2034 4750 
z
" transform="scale(0.015625)"/>
        <path id="DejaVuSans-31" d="M 794 531 
L 1825 531 
L 1825 4091 
L 703 3866 
L 703 4441 
L 1819 4666 
L 2450 4666 
L 2450 531 
L 3481 531 
L 3481 0 
L 794 0 
L 794 531 
z
" transform="scale(0.015625)"/>
        <path id="DejaVuSans-35" d="M 691 4666 
L 3169 4666 
L 3169 4134 
L 1269 4134 
L 1269 2991 
Q 1406 3038 1543 3061 
Q 1681 3084 1819 3084 
Q 2600 3084 3056 2656 
Q 3513 2228 3513 1497 
Q 3513 744 3044 326 
Q 2575 -91 1722 -91 
Q 1428 -91 1123 -41 
Q 819 9 494 109 
L 494 744 
Q 775 591 1075 516 
Q 1375 441 1709 441 
Q 2250 441 2565 725 
Q 2881 1009 2881 1497 
Q 2881 1984 2565 2268 
Q 2250 2553 1709 2553 
Q 1456 2553 1204 2497 
Q 953 2441 691 2322 
L 691 4666 
z
" transform="scale(0.015625)"/>
       </defs>
       <use xlink:href="#DejaVuSans-32"/>
       <use xlink:href="#DejaVuSans-30" x="63.623047"/>
       <use xlink:href="#DejaVuSans-31" x="127.246094"/>
       <use xlink:href="#DejaVuSans-35" x="190.869141"/>
      </g>
     </g>
    </g>
    <g id="xtick_2">
     <g id="line2d_2">
      <g>
       <use xlink:href="#m76158b3255" x="120.234293" y="252" style="stroke: #000000; stroke-width: 0.8"/>
      </g>
     </g>
     <g id="text_2">
      <!-- 2016 -->
      <g transform="translate(107.509293 266.598437)scale(0.1 -0.1)">
       <defs>
        <path id="DejaVuSans-36" d="M 2113 2584 
Q 1688 2584 1439 2293 
Q 1191 2003 1191 1497 
Q 1191 994 1439 701 
Q 1688 409 2113 409 
Q 2538 409 2786 701 
Q 3034 994 3034 1497 
Q 3034 2003 2786 2293 
Q 2538 2584 2113 2584 
z
M 3366 4563 
L 3366 3988 
Q 3128 4100 2886 4159 
Q 2644 4219 2406 4219 
Q 1781 4219 1451 3797 
Q 1122 3375 1075 2522 
Q 1259 2794 1537 2939 
Q 1816 3084 2150 3084 
Q 2853 3084 3261 2657 
Q 3669 2231 3669 1497 
Q 3669 778 3244 343 
Q 2819 -91 2113 -91 
Q 1303 -91 875 529 
Q 447 1150 447 2328 
Q 447 3434 972 4092 
Q 1497 4750 2381 4750 
Q 2619 4750 2861 4703 
Q 3103 4656 3366 4563 
z
" transform="scale(0.015625)"/>
       </defs>
       <use xlink:href="#DejaVuSans-32"/>
       <use xlink:href="#DejaVuSans-30" x="63.623047"/>
       <use xlink:href="#DejaVuSans-31" x="127.246094"/>
       <use xlink:href="#DejaVuSans-36" x="190.869141"/>
      </g>
     </g>
    </g>
    <g id="xtick_3">
     <g id="line2d_3">
      <g>
       <use xlink:href="#m76158b3255" x="159.877386" y="252" style="stroke: #000000; stroke-width: 0.8"/>
      </g>
     </g>
     <g id="text_3">
      <!-- 2017 -->
      <g transform="translate(147.152386 266.598437)scale(0.1 -0.1)">
       <defs>
        <path id="DejaVuSans-37" d="M 525 4666 
L 3525 4666 
L 3525 4397 
L 1831 0 
L 1172 0 
L 2766 4134 
L 525 4134 
L 525 4666 
z
" transform="scale(0.015625)"/>
       </defs>
       <use xlink:href="#DejaVuSans-32"/>
       <use xlink:href="#DejaVuSans-30" x="63.623047"/>
       <use xlink:href="#DejaVuSans-31" x="127.246094"/>
       <use xlink:href="#DejaVuSans-37" x="190.869141"/>
      </g>
     </g>
    </g>
    <g id="xtick_4">
     <g id="line2d_4">
      <g>
       <use xlink:href="#m76158b3255" x="199.412164" y="252" style="stroke: #000000; stroke-width: 0.8"/>
      </g>
     </g>
     <g id="text_4">
      <!-- 2018 -->
      <g transform="translate(186.687164 266.598437)scale(0.1 -0.1)">
       <defs>
        <path id="DejaVuSans-38" d="M 2034 2216 
Q 1584 2216 1326 1975 
Q 1069 1734 1069 1313 
Q 1069 891 1326 650 
Q 1584 409 2034 409 
Q 2484 409 2743 651 
Q 3003 894 3003 1313 
Q 3003 1734 2745 1975 
Q 2488 2216 2034 2216 
z
M 1403 2484 
Q 997 2584 770 2862 
Q 544 3141 544 3541 
Q 544 4100 942 4425 
Q 1341 4750 2034 4750 
Q 2731 4750 3128 4425 
Q 3525 4100 3525 3541 
Q 3525 3141 3298 2862 
Q 3072 2584 2669 2484 
Q 3125 2378 3379 2068 
Q 3634 1759 3634 1313 
Q 3634 634 3220 271 
Q 2806 -91 2034 -91 
Q 1263 -91 848 271 
Q 434 634 434 1313 
Q 434 1759 690 2068 
Q 947 2378 1403 2484 
z
M 1172 3481 
Q 1172 3119 1398 2916 
Q 1625 2713 2034 2713 
Q 2441 2713 2670 2916 
Q 2900 3119 2900 3481 
Q 2900 3844 2670 4047 
Q 2441 4250 2034 4250 
Q 1625 4250 1398 4047 
Q 1172 3844 1172 3481 
z
" transform="scale(0.015625)"/>
       </defs>
       <use xlink:href="#DejaVuSans-32"/>
       <use xlink:href="#DejaVuSans-30" x="63.623047"/>
       <use xlink:href="#DejaVuSans-31" x="127.246094"/>
       <use xlink:href="#DejaVuSans-38" x="190.869141"/>
      </g>
     </g>
    </g>
    <g id="xtick_5">
     <g id="line2d_5">
      <g>
       <use xlink:href="#m76158b3255" x="238.946943" y="252" style="stroke: #000000; stroke-width: 0.8"/>
      </g>
     </g>
     <g id="text_5">
      <!-- 2019 -->
      <g transform="translate(226.221943 266.598437)scale(0.1 -0.1)">
       <defs>
        <path id="DejaVuSans-39" d="M 703 97 
L 703 672 
Q 941 559 1184 500 
Q 1428 441 1663 441 
Q 2288 441 2617 861 
Q 2947 1281 2994 2138 
Q 2813 1869 2534 1725 
Q 2256 1581 1919 1581 
Q 1219 1581 811 2004 
Q 403 2428 403 3163 
Q 403 3881 828 4315 
Q 1253 4750 1959 4750 
Q 2769 4750 3195 4129 
Q 3622 3509 3622 2328 
Q 3622 1225 3098 567 
Q 2575 -91 1691 -91 
Q 1453 -91 1209 -44 
Q 966 3 703 97 
z
M 1959 2075 
Q 2384 2075 2632 2365 
Q 2881 2656 2881 3163 
Q 2881 3666 2632 3958 
Q 2384 4250 1959 4250 
Q 1534 4250 1286 3958 
Q 1038 3666 1038 3163 
Q 1038 2656 1286 2365 
Q 1534 2075 1959 2075 
z
" transform="scale(0.015625)"/>
       </defs>
       <use xlink:href="#DejaVuSans-32"/>
       <use xlink:href="#DejaVuSans-30" x="63.623047"/>
       <use xlink:href="#DejaVuSans-31" x="127.246094"/>
       <use xlink:href="#DejaVuSans-39" x="190.869141"/>
      </g>
     </g>
    </g>
    <g id="xtick_6">
     <g id="line2d_6">
      <g>
       <use xlink:href="#m76158b3255" x="278.481721" y="252" style="stroke: #000000; stroke-width: 0.8"/>
      </g>
     </g>
     <g id="text_6">
      <!-- 2020 -->
      <g transform="translate(265.756721 266.598437)scale(0.1 -0.1)">
       <use xlink:href="#DejaVuSans-32"/>
       <use xlink:href="#DejaVuSans-30" x="63.623047"/>
       <use xlink:href="#DejaVuSans-32" x="127.246094"/>
       <use xlink:href="#DejaVuSans-30" x="190.869141"/>
      </g>
     </g>
    </g>
    <g id="xtick_7">
     <g id="line2d_7">
      <g>
       <use xlink:href="#m76158b3255" x="318.124814" y="252" style="stroke: #000000; stroke-width: 0.8"/>
      </g>
     </g>
     <g id="text_7">
      <!-- 2021 -->
      <g transform="translate(305.399814 266.598437)scale(0.1 -0.1)">
       <use xlink:href="#DejaVuSans-32"/>
       <use xlink:href="#DejaVuSans-30" x="63.623047"/>
       <use xlink:href="#DejaVuSans-32" x="127.246094"/>
       <use xlink:href="#DejaVuSans-31" x="190.869141"/>
      </g>
     </g>
    </g>
    <g id="xtick_8">
     <g id="line2d_8">
      <g>
       <use xlink:href="#m76158b3255" x="357.659592" y="252" style="stroke: #000000; stroke-width: 0.8"/>
      </g>
     </g>
     <g id="text_8">
      <!-- 2022 -->
      <g transform="translate(344.934592 266.598437)scale(0.1 -0.1)">
       <use xlink:href="#DejaVuSans-32"/>
       <use xlink:href="#DejaVuSans-30" x="63.623047"/>
       <use xlink:href="#DejaVuSans-32" x="127.246094"/>
       <use xlink:href="#DejaVuSans-32" x="190.869141"/>
      </g>
     </g>
    </g>
   </g>
   <g id="matplotlib.axis_2">
    <g id="ytick_1">
     <g id="line2d_9">
      <defs>
       <path id="mb9050d16a4" d="M 0 0 
L -3.5 0 
" style="stroke: #000000; stroke-width: 0.8"/>
      </defs>
      <g>
       <use xlink:href="#mb9050d16a4" x="54" y="242.638797" style="stroke: #000000; stroke-width: 0.8"/>
      </g>
     </g>
     <g id="text_9">
      <!-- 0 -->
      <g transform="translate(40.6375 246.438016)scale(0.1 -0.1)">
       <use xlink:href="#DejaVuSans-30"/>
      </g>
     </g>
    </g>
    <g id="ytick_2">
     <g id="line2d_10">
      <g>
       <use xlink:href="#mb9050d16a4" x="54" y="213.305592" style="stroke: #000000; stroke-width: 0.8"/>
      </g>
     </g>
     <g id="text_10">
      <!-- 10000 -->
      <g transform="translate(15.1875 217.104811)scale(0.1 -0.1)">
       <use xlink:href="#DejaVuSans-31"/>
       <use xlink:href="#DejaVuSans-30" x="63.623047"/>
       <use xlink:href="#DejaVuSans-30" x="127.246094"/>
       <use xlink:href="#DejaVuSans-30" x="190.869141"/>
       <use xlink:href="#DejaVuSans-30" x="254.492188"/>
      </g>
     </g>
    </g>
    <g id="ytick_3">
     <g id="line2d_11">
      <g>
       <use xlink:href="#mb9050d16a4" x="54" y="183.972387" style="stroke: #000000; stroke-width: 0.8"/>
      </g>
     </g>
     <g id="text_11">
      <!-- 20000 -->
      <g transform="translate(15.1875 187.771606)scale(0.1 -0.1)">
       <use xlink:href="#DejaVuSans-32"/>
       <use xlink:href="#DejaVuSans-30" x="63.623047"/>
       <use xlink:href="#DejaVuSans-30" x="127.246094"/>
       <use xlink:href="#DejaVuSans-30" x="190.869141"/>
       <use xlink:href="#DejaVuSans-30" x="254.492188"/>
      </g>
     </g>
    </g>
    <g id="ytick_4">
     <g id="line2d_12">
      <g>
       <use xlink:href="#mb9050d16a4" x="54" y="154.639183" style="stroke: #000000; stroke-width: 0.8"/>
      </g>
     </g>
     <g id="text_12">
      <!-- 30000 -->
      <g transform="translate(15.1875 158.438401)scale(0.1 -0.1)">
       <defs>
        <path id="DejaVuSans-33" d="M 2597 2516 
Q 3050 2419 3304 2112 
Q 3559 1806 3559 1356 
Q 3559 666 3084 287 
Q 2609 -91 1734 -91 
Q 1441 -91 1130 -33 
Q 819 25 488 141 
L 488 750 
Q 750 597 1062 519 
Q 1375 441 1716 441 
Q 2309 441 2620 675 
Q 2931 909 2931 1356 
Q 2931 1769 2642 2001 
Q 2353 2234 1838 2234 
L 1294 2234 
L 1294 2753 
L 1863 2753 
Q 2328 2753 2575 2939 
Q 2822 3125 2822 3475 
Q 2822 3834 2567 4026 
Q 2313 4219 1838 4219 
Q 1578 4219 1281 4162 
Q 984 4106 628 3988 
L 628 4550 
Q 988 4650 1302 4700 
Q 1616 4750 1894 4750 
Q 2613 4750 3031 4423 
Q 3450 4097 3450 3541 
Q 3450 3153 3228 2886 
Q 3006 2619 2597 2516 
z
" transform="scale(0.015625)"/>
       </defs>
       <use xlink:href="#DejaVuSans-33"/>
       <use xlink:href="#DejaVuSans-30" x="63.623047"/>
       <use xlink:href="#DejaVuSans-30" x="127.246094"/>
       <use xlink:href="#DejaVuSans-30" x="190.869141"/>
       <use xlink:href="#DejaVuSans-30" x="254.492188"/>
      </g>
     </g>
    </g>
    <g id="ytick_5">
     <g id="line2d_13">
      <g>
       <use xlink:href="#mb9050d16a4" x="54" y="125.305978" style="stroke: #000000; stroke-width: 0.8"/>
      </g>
     </g>
     <g id="text_13">
      <!-- 40000 -->
      <g transform="translate(15.1875 129.105197)scale(0.1 -0.1)">
       <defs>
        <path id="DejaVuSans-34" d="M 2419 4116 
L 825 1625 
L 2419 1625 
L 2419 4116 
z
M 2253 4666 
L 3047 4666 
L 3047 1625 
L 3713 1625 
L 3713 1100 
L 3047 1100 
L 3047 0 
L 2419 0 
L 2419 1100 
L 313 1100 
L 313 1709 
L 2253 4666 
z
" transform="scale(0.015625)"/>
       </defs>
       <use xlink:href="#DejaVuSans-34"/>
       <use xlink:href="#DejaVuSans-30" x="63.623047"/>
       <use xlink:href="#DejaVuSans-30" x="127.246094"/>
       <use xlink:href="#DejaVuSans-30" x="190.869141"/>
       <use xlink:href="#DejaVuSans-30" x="254.492188"/>
      </g>
     </g>
    </g>
    <g id="ytick_6">
     <g id="line2d_14">
      <g>
       <use xlink:href="#mb9050d16a4" x="54" y="95.972773" style="stroke: #000000; stroke-width: 0.8"/>
      </g>
     </g>
     <g id="text_14">
      <!-- 50000 -->
      <g transform="translate(15.1875 99.771992)scale(0.1 -0.1)">
       <use xlink:href="#DejaVuSans-35"/>
       <use xlink:href="#DejaVuSans-30" x="63.623047"/>
       <use xlink:href="#DejaVuSans-30" x="127.246094"/>
       <use xlink:href="#DejaVuSans-30" x="190.869141"/>
       <use xlink:href="#DejaVuSans-30" x="254.492188"/>
      </g>
     </g>
    </g>
    <g id="ytick_7">
     <g id="line2d_15">
      <g>
       <use xlink:href="#mb9050d16a4" x="54" y="66.639568" style="stroke: #000000; stroke-width: 0.8"/>
      </g>
     </g>
     <g id="text_15">
      <!-- 60000 -->
      <g transform="translate(15.1875 70.438787)scale(0.1 -0.1)">
       <use xlink:href="#DejaVuSans-36"/>
       <use xlink:href="#DejaVuSans-30" x="63.623047"/>
       <use xlink:href="#DejaVuSans-30" x="127.246094"/>
       <use xlink:href="#DejaVuSans-30" x="190.869141"/>
       <use xlink:href="#DejaVuSans-30" x="254.492188"/>
      </g>
     </g>
    </g>
    <g id="ytick_8">
     <g id="line2d_16">
      <g>
       <use xlink:href="#mb9050d16a4" x="54" y="37.306363" style="stroke: #000000; stroke-width: 0.8"/>
      </g>
     </g>
     <g id="text_16">
      <!-- 70000 -->
      <g transform="translate(15.1875 41.105582)scale(0.1 -0.1)">
       <use xlink:href="#DejaVuSans-37"/>
       <use xlink:href="#DejaVuSans-30" x="63.623047"/>
       <use xlink:href="#DejaVuSans-30" x="127.246094"/>
       <use xlink:href="#DejaVuSans-30" x="190.869141"/>
       <use xlink:href="#DejaVuSans-30" x="254.492188"/>
      </g>
     </g>
    </g>
   </g>
   <g id="line2d_17">
    <path d="M 69.218182 241.29729 
L 69.543125 241.43935 
L 69.759754 241.459156 
L 69.976383 241.397401 
L 70.62627 241.503766 
L 70.951213 241.584233 
L 71.167842 241.698638 
L 72.250987 241.480801 
L 72.57593 241.490572 
L 73.984018 241.646393 
L 74.308962 241.677976 
L 75.175477 241.56023 
L 75.392106 241.404646 
L 75.717049 241.501015 
L 78.858169 241.625789 
L 79.183112 241.725373 
L 80.049628 241.676891 
L 80.482886 241.727306 
L 80.807829 241.714707 
L 81.024458 241.863828 
L 81.56603 241.786937 
L 82.432546 242.054303 
L 83.407376 241.836613 
L 84.273892 241.972147 
L 86.981753 241.892962 
L 88.281527 241.775362 
L 89.039728 241.873411 
L 91.314332 241.924017 
L 92.072533 241.968319 
L 92.614105 241.948677 
L 95.863539 241.948457 
L 96.621741 241.942403 
L 100.629376 241.873535 
L 101.062633 241.844498 
L 101.387577 241.778997 
L 101.604206 241.782109 
L 102.68735 241.829057 
L 103.120608 241.777504 
L 104.312067 241.818684 
L 104.637011 241.863022 
L 105.178583 241.871584 
L 105.395212 241.88207 
L 105.503526 242.019634 
L 105.82847 241.956597 
L 107.453187 241.949411 
L 108.211388 241.948795 
L 109.186218 241.972684 
L 110.810935 241.917015 
L 111.785765 241.892795 
L 112.327337 241.848375 
L 112.977224 241.801921 
L 113.735425 241.579314 
L 113.952054 241.431551 
L 114.168683 241.540356 
L 114.493627 241.523381 
L 114.710256 241.726288 
L 114.926885 241.650992 
L 116.226658 241.676063 
L 116.551601 241.590484 
L 116.876545 241.575503 
L 117.201488 241.573465 
L 117.526432 241.478563 
L 117.959689 241.313118 
L 118.176318 241.366454 
L 118.826205 241.282658 
L 119.151148 241.358191 
L 119.476092 241.30222 
L 119.692721 241.398521 
L 120.775865 241.380094 
L 120.992494 241.309328 
L 121.642381 241.376571 
L 121.750696 241.570097 
L 121.967324 241.517391 
L 123.050469 241.480217 
L 123.483727 241.557085 
L 125.866645 241.354742 
L 126.191588 241.393473 
L 126.733161 241.362442 
L 127.274733 241.442862 
L 127.92462 241.431372 
L 129.765966 241.417022 
L 131.498997 241.394242 
L 132.798771 241.271608 
L 133.0154 241.321704 
L 133.556972 241.317911 
L 134.531802 241.304822 
L 136.156519 241.249975 
L 136.373148 241.095187 
L 137.564607 240.953223 
L 137.781236 240.859072 
L 137.997865 240.572636 
L 138.214494 240.601697 
L 138.322808 240.39097 
L 138.539437 240.420541 
L 138.756066 240.476277 
L 138.972695 240.890197 
L 139.297638 240.687778 
L 139.405953 240.792662 
L 139.622582 240.740936 
L 139.730896 240.761794 
L 140.05584 240.574613 
L 140.164154 240.706724 
L 140.380783 240.671633 
L 140.489097 240.651968 
L 140.597412 240.759823 
L 140.814041 240.729322 
L 141.572242 240.700555 
L 141.788871 240.664361 
L 143.088644 240.717334 
L 143.521902 240.977496 
L 144.063475 240.905046 
L 145.471563 240.933634 
L 146.013135 240.938495 
L 146.446393 240.944795 
L 146.879651 240.884049 
L 147.529537 240.811746 
L 152.836946 240.615829 
L 153.053575 240.580005 
L 153.270204 240.49808 
L 153.378518 240.465708 
L 153.486833 240.618619 
L 153.811776 240.551675 
L 154.245034 240.539906 
L 156.519638 240.418936 
L 156.736267 240.376752 
L 158.685927 240.191583 
L 159.01087 240.002264 
L 159.227499 239.976486 
L 159.552443 239.783218 
L 159.769071 239.81183 
L 160.094015 239.57688 
L 160.202329 239.251604 
L 160.418958 239.992352 
L 160.852216 239.976283 
L 160.960531 240.357386 
L 161.285474 240.238132 
L 161.502103 240.199641 
L 161.610417 239.975524 
L 161.827046 240.001528 
L 162.15199 239.926435 
L 163.018505 239.939021 
L 163.343449 239.670863 
L 163.668392 239.625279 
L 163.993335 239.520472 
L 164.209964 239.738699 
L 164.426593 239.707879 
L 164.751537 239.683535 
L 165.726367 239.196017 
L 165.834681 239.283548 
L 166.592883 238.95704 
L 166.809511 238.905179 
L 167.02614 239.265478 
L 167.134455 239.152575 
L 167.242769 239.363099 
L 167.567713 239.025181 
L 167.784342 238.97329 
L 168.000971 239.41147 
L 168.109285 239.782277 
L 168.434228 239.351894 
L 168.759172 239.88875 
L 169.19243 239.56717 
L 169.409059 239.627949 
L 169.625687 239.469344 
L 170.275574 239.186572 
L 171.358719 239.136676 
L 171.683662 239.033511 
L 172.008606 239.097663 
L 172.333549 238.880979 
L 172.550178 238.777139 
L 172.766807 238.685003 
L 173.09175 238.267885 
L 173.416694 238.00767 
L 173.525008 237.955135 
L 173.741637 237.489763 
L 173.958266 237.216349 
L 174.06658 237.581048 
L 174.283209 237.332684 
L 174.499838 237.551099 
L 174.933096 236.523616 
L 175.041411 236.651303 
L 175.366354 235.470818 
L 175.691297 236.658138 
L 175.907926 236.022369 
L 176.016241 236.257446 
L 176.449499 235.260469 
L 176.557813 235.270853 
L 176.774442 234.240114 
L 176.882756 234.624496 
L 177.316014 233.961712 
L 177.424329 234.83725 
L 177.532643 234.668906 
L 177.749272 235.409394 
L 177.857587 235.251053 
L 177.965901 234.84825 
L 178.074215 235.163845 
L 178.18253 235.04267 
L 178.290844 234.654914 
L 178.507473 234.702963 
L 178.615788 234.587096 
L 178.940731 235.368709 
L 179.15736 235.086112 
L 179.482303 235.497481 
L 179.807247 235.007353 
L 180.023876 234.987054 
L 180.13219 235.25076 
L 180.240505 235.096232 
L 180.348819 235.251405 
L 180.565448 235.781309 
L 180.673763 235.60223 
L 180.782077 235.722321 
L 181.10702 236.978016 
L 181.323649 235.836779 
L 181.431964 235.970098 
L 181.540278 234.373873 
L 181.648593 234.813402 
L 181.756907 234.395814 
L 181.865222 234.629659 
L 181.973536 234.557909 
L 182.190165 235.219109 
L 182.406794 234.39907 
L 182.515108 234.641245 
L 182.623423 234.551104 
L 182.731737 234.204503 
L 182.948366 234.687533 
L 183.164995 234.144224 
L 183.27331 233.09697 
L 183.381624 233.211281 
L 183.598253 232.607017 
L 183.706567 232.834261 
L 183.814882 232.720419 
L 184.24814 229.951805 
L 184.356454 230.371855 
L 184.464769 229.800739 
L 184.573083 229.932562 
L 184.681398 230.434365 
L 184.789712 230.33733 
L 185.006341 230.900411 
L 185.439599 229.815493 
L 185.547913 229.871813 
L 185.764542 229.78305 
L 185.872857 229.207064 
L 185.981171 229.247309 
L 186.1978 228.288964 
L 186.522743 230.212342 
L 186.847687 229.145875 
L 187.064316 230.242408 
L 187.17263 230.544893 
L 187.280945 230.432458 
L 187.389259 230.521807 
L 187.497574 231.249916 
L 187.605888 233.384318 
L 187.714203 231.968785 
L 187.822517 232.005393 
L 187.930831 232.129062 
L 188.039146 230.714263 
L 188.472404 231.98879 
L 188.580718 231.514473 
L 188.689033 231.835847 
L 188.797347 231.122375 
L 188.905662 231.221287 
L 189.013976 230.316886 
L 189.230605 230.427179 
L 189.447234 229.721215 
L 189.555548 229.704849 
L 189.772177 230.232729 
L 190.530379 228.481184 
L 190.747007 226.07372 
L 190.855322 225.532288 
L 190.963636 225.982846 
L 191.071951 225.843807 
L 191.28858 226.239512 
L 191.396894 225.893878 
L 191.613523 224.946181 
L 191.721838 225.014176 
L 191.830152 225.243268 
L 191.938467 226.42739 
L 192.155095 225.318038 
L 192.371724 225.763141 
L 192.480039 224.587582 
L 192.588353 224.655988 
L 193.021611 221.496127 
L 193.23824 220.910489 
L 193.346555 222.038792 
L 193.454869 221.682041 
L 193.563183 220.757136 
L 193.996441 225.185335 
L 194.429699 219.548608 
L 194.538014 220.025858 
L 194.646328 219.787791 
L 194.862957 218.583693 
L 194.971271 218.963205 
L 195.079586 218.42849 
L 195.1879 219.058508 
L 195.296215 218.428078 
L 195.729473 213.133113 
L 195.837787 213.632334 
L 195.946102 212.62037 
L 196.162731 210.153447 
L 196.487674 207.683296 
L 196.704303 190.133243 
L 196.920932 198.116271 
L 197.029246 197.303154 
L 197.245875 191.553846 
L 197.35419 194.50829 
L 197.462504 194.051276 
L 197.679133 185.446673 
L 197.787447 186.492694 
L 197.895762 186.570725 
L 198.32902 202.065695 
L 198.437334 199.521332 
L 198.545649 201.789963 
L 198.653963 201.494285 
L 198.762278 195.412924 
L 198.870592 196.1794 
L 198.978907 199.793251 
L 199.087221 199.647465 
L 199.195535 204.645843 
L 199.30385 201.113538 
L 199.412164 202.577852 
L 199.628793 198.049392 
L 199.737108 196.881343 
L 199.953737 191.226489 
L 200.27868 199.82581 
L 200.386995 198.71731 
L 200.495309 203.31529 
L 200.711938 200.515728 
L 200.820252 202.241107 
L 200.928567 202.100895 
L 201.145196 209.819048 
L 201.361825 208.590572 
L 201.470139 204.801309 
L 201.686768 210.573496 
L 201.795082 210.758295 
L 201.903397 209.318035 
L 202.120026 209.869499 
L 202.336655 208.065802 
L 202.444969 209.502834 
L 202.553284 212.993781 
L 202.661598 212.657036 
L 202.878227 216.735377 
L 202.986542 215.725845 
L 203.20317 222.236761 
L 203.311485 219.89383 
L 203.419799 220.283082 
L 203.636428 217.010433 
L 203.744743 217.348 
L 203.853057 218.790989 
L 203.961372 216.454305 
L 204.069686 217.417199 
L 204.286315 212.817486 
L 204.39463 212.619487 
L 204.502944 210.041686 
L 204.611258 211.686986 
L 204.827887 209.18809 
L 205.044516 213.290925 
L 205.152831 212.42237 
L 205.36946 214.289045 
L 205.586089 211.177176 
L 205.694403 212.138423 
L 206.019346 208.935824 
L 206.235975 208.6906 
L 206.560919 215.080222 
L 206.669233 215.248771 
L 206.777548 216.631977 
L 206.885862 214.541606 
L 207.210806 218.380795 
L 207.31912 218.289713 
L 207.427434 218.179745 
L 207.535749 219.416051 
L 207.969007 216.446356 
L 208.077321 217.035398 
L 208.185636 216.592025 
L 208.618894 219.66198 
L 208.727208 219.305758 
L 208.943837 222.426693 
L 209.052151 222.183199 
L 209.160466 222.562477 
L 209.377095 220.767637 
L 209.593724 222.658572 
L 209.702038 223.172344 
L 209.918667 222.036562 
L 210.026982 222.778076 
L 210.24361 222.198482 
L 210.460239 219.477416 
L 210.568554 219.212595 
L 210.676868 218.206847 
L 210.893497 219.459435 
L 211.326755 216.54521 
L 211.43507 216.818361 
L 211.543384 216.441664 
L 211.651698 214.192921 
L 211.760013 216.691406 
L 211.868327 215.413154 
L 211.976642 216.2769 
L 212.193271 215.009616 
L 212.4099 215.889819 
L 212.518214 215.546884 
L 212.626529 214.056932 
L 212.734843 214.18336 
L 212.843158 213.721682 
L 213.168101 215.550109 
L 213.276415 215.285056 
L 213.38473 216.110021 
L 213.493044 217.877201 
L 213.601359 217.69123 
L 213.709673 217.048684 
L 213.817988 217.069658 
L 214.142931 218.895563 
L 214.467874 217.666706 
L 214.576189 217.9432 
L 214.792818 220.469289 
L 214.901132 220.382697 
L 215.33439 221.706651 
L 215.442705 220.719296 
L 215.551019 220.9131 
L 215.984277 219.992829 
L 216.092591 220.596447 
L 216.30922 220.187221 
L 216.417535 220.116058 
L 216.634164 220.545086 
L 216.742478 222.733225 
L 216.850793 222.378587 
L 217.067422 224.012505 
L 217.175736 223.057856 
L 217.28405 223.699578 
L 217.392365 223.425078 
L 217.500679 223.574355 
L 217.717308 222.780393 
L 217.825623 222.761005 
L 217.933937 222.898312 
L 218.042252 224.793385 
L 218.367195 224.307949 
L 218.47551 224.76411 
L 218.583824 224.577962 
L 218.692138 225.322116 
L 218.908767 223.853812 
L 219.017082 223.907141 
L 219.125396 223.237287 
L 219.233711 223.485417 
L 219.666969 222.525223 
L 219.883598 222.863083 
L 219.991912 224.071024 
L 220.100226 223.881063 
L 220.208541 224.367701 
L 220.42517 224.228925 
L 220.533484 223.983934 
L 220.858428 221.017938 
L 220.966742 220.736104 
L 221.075057 221.066777 
L 221.291686 220.877987 
L 221.4 220.01964 
L 221.508314 217.927714 
L 221.724943 219.314264 
L 221.941572 218.608594 
L 222.049887 218.53142 
L 222.158201 218.642827 
L 222.37483 220.272492 
L 222.483145 220.441921 
L 222.591459 220.831348 
L 222.699774 222.009194 
L 222.808088 221.90468 
L 223.024717 222.829731 
L 223.133031 224.141865 
L 223.241346 223.372073 
L 223.34966 224.49706 
L 223.566289 224.092321 
L 223.674604 224.166006 
L 223.782918 224.453061 
L 224.107862 223.3357 
L 224.216176 223.795851 
L 224.32449 223.554409 
L 224.432805 224.133857 
L 224.541119 223.605185 
L 224.649434 223.933863 
L 224.974377 222.800193 
L 225.082692 222.964254 
L 225.299321 221.823134 
L 225.51595 222.169412 
L 225.624264 221.995319 
L 225.840893 221.305578 
L 225.949207 221.342714 
L 226.057522 221.044688 
L 226.274151 223.486649 
L 226.382465 223.668808 
L 226.49078 224.376002 
L 226.707409 224.071758 
L 226.815723 224.096691 
L 226.924038 224.006932 
L 227.140666 223.534931 
L 227.248981 223.445494 
L 227.357295 223.521819 
L 227.46561 224.214024 
L 228.007182 222.921075 
L 228.115497 222.954369 
L 228.332126 223.729234 
L 228.44044 223.58688 
L 228.548754 223.053749 
L 229.198641 223.564617 
L 229.41527 223.212941 
L 229.631899 223.270228 
L 229.848528 223.153804 
L 229.956842 223.321327 
L 230.065157 224.287239 
L 230.3901 224.185483 
L 230.606729 223.290293 
L 230.931673 223.673677 
L 231.148302 223.623987 
L 231.906503 223.612136 
L 232.123132 224.058353 
L 232.231446 224.107222 
L 232.448075 223.899455 
L 232.664704 223.935564 
L 232.989647 223.483803 
L 233.206276 223.907727 
L 233.422905 223.832487 
L 233.639534 223.984374 
L 233.856163 226.071315 
L 234.072792 226.346167 
L 234.181106 226.143152 
L 234.397735 229.580035 
L 234.50605 229.139158 
L 234.830993 231.255284 
L 234.939308 230.87627 
L 235.047622 231.553398 
L 235.155937 231.431401 
L 235.372566 230.087568 
L 235.48088 230.854861 
L 235.589194 230.275813 
L 235.697509 230.495208 
L 235.805823 231.216063 
L 235.914138 231.031959 
L 236.239081 232.607025 
L 236.347396 232.442238 
L 236.45571 232.037089 
L 236.672339 232.593382 
L 236.780654 232.410454 
L 236.997282 233.12755 
L 237.213911 233.097177 
L 237.43054 231.797071 
L 237.538855 231.650723 
L 237.647169 230.511155 
L 237.755484 231.208985 
L 237.863798 230.863913 
L 237.972113 230.908506 
L 238.080427 230.674958 
L 238.188742 231.44674 
L 238.297056 231.324107 
L 238.40537 231.917999 
L 238.513685 231.128686 
L 238.621999 231.432314 
L 238.730314 231.298719 
L 238.838628 231.660257 
L 239.055257 231.071513 
L 239.163572 231.384405 
L 239.380201 231.359609 
L 239.488515 230.680727 
L 239.705144 230.815028 
L 239.813458 230.801979 
L 239.921773 231.847332 
L 240.030087 231.822572 
L 240.138402 231.899028 
L 240.246716 232.216847 
L 240.355031 231.767758 
L 240.463345 231.988863 
L 240.679974 231.84839 
L 240.788289 231.909182 
L 240.896603 231.701711 
L 241.113232 232.149148 
L 241.221546 232.065417 
L 241.438175 232.076304 
L 241.763119 232.125876 
L 241.979748 232.524365 
L 242.088062 232.412709 
L 242.196377 232.495983 
L 242.413005 232.310397 
L 242.629634 232.491989 
L 242.737949 232.47086 
L 242.954578 232.667057 
L 243.171207 231.86998 
L 243.279521 231.814292 
L 243.49615 231.921827 
L 243.821093 232.017798 
L 244.037722 231.862258 
L 244.254351 231.060704 
L 244.362666 230.906041 
L 244.47098 231.040101 
L 244.579295 230.889304 
L 244.687609 230.487438 
L 244.795924 231.461592 
L 244.904238 231.249604 
L 245.120867 231.342441 
L 245.554125 231.353797 
L 245.662439 231.604944 
L 245.879068 231.187282 
L 246.420641 231.183514 
L 246.745584 231.127364 
L 247.287156 230.696691 
L 247.395471 230.648919 
L 247.6121 230.835208 
L 247.828729 230.840488 
L 247.937043 231.013841 
L 248.045357 230.949278 
L 248.153672 230.650122 
L 248.261986 230.702801 
L 248.478615 230.592646 
L 248.58693 230.59633 
L 248.695244 230.441513 
L 248.911873 228.05133 
L 249.020188 228.19865 
L 249.453445 227.122203 
L 249.56176 227.370985 
L 249.670074 227.02018 
L 249.778389 227.783031 
L 250.103332 227.480212 
L 250.211647 227.775344 
L 250.428276 227.23318 
L 250.753219 226.981066 
L 250.861533 227.049573 
L 251.078162 226.293272 
L 251.186477 226.608591 
L 251.294791 227.354685 
L 251.51142 227.185211 
L 251.619735 227.13579 
L 251.728049 227.24663 
L 252.269621 225.534114 
L 252.377936 225.638126 
L 252.48625 225.78157 
L 252.702879 225.090332 
L 252.919508 223.927588 
L 253.027823 221.504893 
L 253.136137 222.186596 
L 253.352766 219.188613 
L 253.461081 218.57041 
L 253.786024 221.310013 
L 253.894338 218.592346 
L 254.219282 220.110701 
L 254.435911 219.209276 
L 254.544225 219.018105 
L 254.760854 216.808627 
L 254.977483 217.237745 
L 255.085797 218.235117 
L 255.194112 217.487035 
L 255.302426 217.517792 
L 255.410741 216.992899 
L 255.62737 220.029434 
L 255.952313 219.04331 
L 256.060628 219.30679 
L 256.168942 220.087203 
L 256.277257 219.171266 
L 256.385571 219.38427 
L 257.035458 215.299216 
L 257.143772 215.999076 
L 257.360401 214.692583 
L 257.685345 210.796514 
L 257.793659 210.339704 
L 258.010288 204.458019 
L 258.118602 209.836041 
L 258.226917 206.244116 
L 258.335231 207.558129 
L 258.55186 211.595071 
L 258.660175 210.954014 
L 258.768489 207.55256 
L 258.985118 210.435455 
L 259.201747 209.049794 
L 259.418376 205.755775 
L 259.635005 209.320201 
L 259.743319 207.978722 
L 259.851634 209.221298 
L 259.959948 212.55449 
L 260.068263 210.680007 
L 260.176577 214.837837 
L 260.284892 214.203767 
L 260.393206 211.350586 
L 260.501521 211.748784 
L 260.609835 211.055326 
L 260.826464 212.299151 
L 261.043093 213.857274 
L 261.151407 213.564188 
L 261.259722 213.686033 
L 261.368036 214.837731 
L 261.476351 214.617196 
L 261.584665 214.716092 
L 261.69298 214.457144 
L 261.909609 212.133235 
L 262.017923 211.785619 
L 262.234552 210.45973 
L 262.342866 208.009032 
L 262.451181 208.969649 
L 262.66781 207.537489 
L 262.776124 207.841002 
L 262.884439 209.333805 
L 262.992753 208.836446 
L 263.101068 209.249936 
L 263.317697 213.153927 
L 263.426011 212.391728 
L 263.534325 212.207536 
L 263.64264 212.625812 
L 263.750954 212.291219 
L 263.859269 210.618513 
L 263.967583 211.066787 
L 264.184212 212.921164 
L 264.292527 212.1089 
L 264.509156 212.899276 
L 264.61747 212.217857 
L 264.725785 212.761461 
L 264.942413 214.742332 
L 265.267357 214.015542 
L 265.483986 211.476549 
L 265.700615 211.617369 
L 265.808929 212.269242 
L 265.917244 211.788318 
L 266.133873 212.323004 
L 266.242187 212.965398 
L 266.350501 212.78237 
L 266.458816 212.102558 
L 266.675445 212.25532 
L 266.783759 212.285639 
L 267.108703 212.724067 
L 267.217017 212.524111 
L 267.433646 213.247756 
L 267.541961 213.099108 
L 267.650275 214.099571 
L 267.866904 217.743726 
L 267.975218 218.823262 
L 268.191847 218.450885 
L 268.300162 218.866623 
L 268.516791 218.165293 
L 268.625105 218.019315 
L 268.841734 218.568147 
L 268.950049 218.727834 
L 269.058363 219.206976 
L 269.166677 218.451742 
L 269.274992 218.501139 
L 269.383306 217.424736 
L 269.491621 217.451918 
L 269.599935 218.228417 
L 269.924879 218.073157 
L 270.141508 219.032821 
L 270.249822 218.867428 
L 270.358137 219.250824 
L 270.466451 219.205789 
L 270.68308 218.457322 
L 270.791394 218.942838 
L 271.008023 220.657993 
L 271.224652 215.520329 
L 271.332967 214.620556 
L 271.441281 215.487547 
L 271.549596 214.984368 
L 271.766225 215.653466 
L 271.982853 215.286411 
L 272.091168 215.548542 
L 272.199482 215.028588 
L 272.307797 215.23417 
L 272.416111 215.180336 
L 272.524426 215.454069 
L 272.63274 216.811259 
L 272.741055 216.785736 
L 272.849369 216.076036 
L 272.957684 216.949398 
L 273.174313 216.801339 
L 273.282627 217.095164 
L 273.390941 217.729062 
L 273.60757 217.476845 
L 274.149143 221.235596 
L 274.257457 220.938688 
L 274.365772 221.964998 
L 274.582401 221.465001 
L 274.690715 220.546014 
L 274.799029 220.747115 
L 274.907344 219.872582 
L 275.232287 221.161059 
L 275.340602 221.166464 
L 275.448916 221.366255 
L 275.665545 220.501037 
L 275.882174 220.450148 
L 276.207117 221.46777 
L 276.423746 221.314482 
L 276.532061 221.739845 
L 276.640375 221.658804 
L 276.857004 223.160038 
L 276.965319 221.293602 
L 277.073633 221.510546 
L 277.181948 221.463695 
L 277.290262 221.544824 
L 277.398577 220.604899 
L 277.615205 221.159463 
L 277.831834 221.404587 
L 278.156778 220.865777 
L 278.373407 221.537665 
L 278.481721 221.518378 
L 278.590036 222.148174 
L 278.806665 220.900966 
L 278.914979 220.899028 
L 279.131608 218.692071 
L 279.239922 218.93797 
L 279.348237 219.526956 
L 279.456551 218.683676 
L 279.564866 219.062123 
L 279.67318 218.607586 
L 279.781495 218.749265 
L 279.889809 216.744134 
L 279.998124 216.805012 
L 280.106438 217.049136 
L 280.323067 216.406673 
L 280.539696 217.243157 
L 280.64801 216.984285 
L 280.756325 217.175006 
L 280.864639 217.979792 
L 280.972954 217.865631 
L 281.081268 218.093218 
L 281.297897 216.503441 
L 281.406212 215.187054 
L 281.514526 215.310136 
L 281.622841 214.745872 
L 281.731155 215.210698 
L 281.839469 215.086484 
L 282.056098 215.37792 
L 282.164413 215.70809 
L 282.381042 214.09817 
L 282.597671 213.701241 
L 282.705985 212.96335 
L 282.8143 213.726197 
L 283.030929 212.349169 
L 283.139243 212.676747 
L 283.247557 212.390055 
L 283.355872 213.629945 
L 283.464186 213.497919 
L 283.572501 214.214503 
L 283.680815 212.889072 
L 283.897444 214.454059 
L 284.005759 214.22536 
L 284.114073 214.293588 
L 284.222388 213.527012 
L 284.76396 217.199707 
L 284.980589 217.522375 
L 285.088903 216.621212 
L 285.305532 216.956854 
L 285.522161 215.879446 
L 285.630476 216.503046 
L 285.847104 219.396208 
L 286.063733 219.432037 
L 286.172048 228.057882 
L 286.280362 226.318661 
L 286.388677 227.384456 
L 286.496991 226.821409 
L 286.605306 227.92972 
L 286.821935 227.272778 
L 287.038564 224.455793 
L 287.146878 224.496015 
L 287.255192 225.536791 
L 287.471821 222.883459 
L 287.580136 223.041098 
L 287.68845 222.937325 
L 288.013394 225.267547 
L 288.230023 223.752189 
L 288.446652 222.710919 
L 288.554966 222.887614 
L 288.66328 222.494138 
L 288.771595 222.718238 
L 288.879909 221.308332 
L 288.988224 221.588073 
L 289.096538 221.125535 
L 289.204853 221.219429 
L 289.421482 222.518908 
L 289.529796 222.19035 
L 289.85474 223.15536 
L 289.963054 221.762929 
L 290.071368 221.823413 
L 290.179683 221.349739 
L 290.287997 221.54991 
L 290.504626 222.456604 
L 290.82957 220.489585 
L 290.937884 220.433748 
L 291.262828 219.738192 
L 291.371142 216.822532 
L 291.479456 217.240484 
L 291.696085 216.272362 
L 291.8044 216.53967 
L 291.912714 216.495125 
L 292.021029 216.229906 
L 292.129343 215.450548 
L 292.237658 213.447804 
L 292.345972 213.767103 
L 292.454287 214.496824 
L 292.670916 217.406973 
L 292.77923 216.812443 
L 292.995859 214.086672 
L 293.104173 215.276205 
L 293.212488 215.133011 
L 293.429117 214.107635 
L 293.537431 214.10041 
L 293.645746 214.70484 
L 293.75406 215.999079 
L 293.970689 215.625006 
L 294.079004 216.85383 
L 294.187318 216.511903 
L 294.295632 216.722756 
L 294.512261 214.696716 
L 294.620576 214.950821 
L 294.72889 214.184374 
L 294.837205 214.88648 
L 294.945519 212.81494 
L 295.053834 214.684828 
L 295.270463 213.890388 
L 295.487092 214.321461 
L 295.70372 213.975887 
L 295.812035 213.904869 
L 295.920349 213.686646 
L 296.028664 215.295025 
L 296.245293 214.844772 
L 296.353607 215.104339 
L 296.570236 214.660714 
L 296.786865 215.030851 
L 296.89518 215.394062 
L 297.003494 215.26405 
L 297.111808 215.348269 
L 297.220123 214.336015 
L 297.328437 214.391923 
L 297.545066 215.46213 
L 297.761695 216.105767 
L 297.978324 215.679075 
L 298.086639 215.834134 
L 298.194953 215.569162 
L 298.411582 215.982823 
L 298.519896 215.850282 
L 298.628211 216.022016 
L 298.736525 215.137525 
L 298.84484 215.498902 
L 298.953154 214.982475 
L 299.169783 215.42108 
L 299.278098 215.533899 
L 299.386412 215.427849 
L 299.927984 215.79483 
L 300.252928 215.757169 
L 300.577871 214.534441 
L 300.686186 214.664035 
L 300.902815 213.583768 
L 301.011129 210.399044 
L 301.119444 210.627989 
L 301.552701 208.144143 
L 301.661016 210.215004 
L 301.76933 209.649652 
L 301.877645 209.768323 
L 302.094274 208.084946 
L 302.202588 208.60796 
L 302.310903 208.160413 
L 302.419217 208.390112 
L 302.527532 207.79649 
L 302.635846 209.168069 
L 302.852475 208.072144 
L 302.960789 208.116926 
L 303.177418 207.753392 
L 303.285733 206.692707 
L 303.502362 208.147984 
L 303.610676 207.795725 
L 303.718991 208.634311 
L 303.827305 208.37226 
L 303.93562 208.42206 
L 304.043934 208.100134 
L 304.152248 209.298281 
L 304.260563 208.939746 
L 304.368877 209.423643 
L 304.477192 208.780945 
L 304.585506 208.885473 
L 304.693821 208.285197 
L 304.802135 208.375207 
L 304.91045 207.525547 
L 305.018764 209.157777 
L 305.127079 212.586058 
L 305.235393 211.804279 
L 305.343708 212.808197 
L 305.560336 212.221544 
L 305.668651 212.919812 
L 305.993594 212.12958 
L 306.101909 212.008563 
L 306.210223 212.355912 
L 306.426852 210.967879 
L 306.535167 210.445882 
L 306.751796 210.534819 
L 306.86011 210.095523 
L 306.968424 210.553341 
L 307.076739 211.949636 
L 307.185053 211.726116 
L 307.293368 212.583448 
L 307.401682 211.076074 
L 307.509997 211.273632 
L 307.726626 211.031478 
L 307.83494 211.223954 
L 307.943255 210.82799 
L 308.051569 211.004428 
L 308.268198 211.616074 
L 308.376512 211.694234 
L 308.593141 210.978472 
L 308.701456 211.532675 
L 308.80977 211.343292 
L 309.134714 209.502949 
L 309.351343 208.743213 
L 309.567972 209.11239 
L 309.676286 208.919252 
L 309.7846 209.427381 
L 309.892915 209.321845 
L 310.109544 208.195639 
L 310.217858 207.684367 
L 310.434487 204.605681 
L 310.542802 204.706448 
L 310.651116 204.188649 
L 310.759431 204.414188 
L 310.867745 204.284904 
L 310.97606 202.586597 
L 311.084374 203.709864 
L 311.409317 202.214722 
L 311.517632 202.343453 
L 311.625946 202.890869 
L 311.842575 201.180105 
L 311.95089 196.938108 
L 312.059204 196.97908 
L 312.167519 199.126643 
L 312.275833 197.232265 
L 312.492462 197.78568 
L 312.817405 194.773435 
L 313.034034 195.835944 
L 313.358978 190.413942 
L 313.467292 190.375562 
L 313.683921 187.955155 
L 313.90055 188.770944 
L 314.008864 186.590479 
L 314.117179 187.691482 
L 314.333808 192.45437 
L 314.550437 189.31841 
L 314.658751 185.06993 
L 314.767066 187.483578 
L 314.983695 185.599211 
L 315.092009 187.786391 
L 315.308638 185.893357 
L 315.416952 186.343593 
L 315.525267 188.897008 
L 315.633581 188.214215 
L 315.85021 189.666243 
L 316.066839 186.488053 
L 316.283468 185.68229 
L 316.500097 175.743948 
L 316.608412 174.767742 
L 316.716726 172.62093 
L 316.933355 175.750049 
L 317.041669 172.87555 
L 317.149984 174.464482 
L 317.366613 170.28906 
L 317.474927 165.090495 
L 317.583242 165.573736 
L 318.0165 157.567456 
L 318.124814 156.474994 
L 318.341443 146.478616 
L 318.449757 148.854927 
L 318.883015 122.966334 
L 318.99133 124.55931 
L 319.316273 143.131881 
L 319.532902 127.689805 
L 319.749531 136.516716 
L 319.857845 137.65151 
L 319.96616 135.19105 
L 320.182789 138.365854 
L 320.291103 152.217142 
L 320.399418 145.82232 
L 320.507732 148.574124 
L 320.832676 147.10099 
L 320.94099 153.370384 
L 321.157619 141.977837 
L 321.265933 142.115302 
L 321.374248 145.503768 
L 321.482562 144.263512 
L 321.699191 132.721148 
L 321.807506 134.32281 
L 322.024135 127.459001 
L 322.132449 128.522536 
L 322.349078 106.294818 
L 322.457392 110.879369 
L 322.565707 102.105372 
L 322.782336 104.463223 
L 322.89065 99.735375 
L 322.998965 102.000575 
L 323.107279 98.319808 
L 323.215594 89.669044 
L 323.323908 91.04539 
L 323.540537 78.080927 
L 323.648852 73.855697 
L 324.082109 104.497438 
L 324.407053 110.235253 
L 324.515367 97.054458 
L 324.623682 100.72772 
L 324.731996 94.393936 
L 324.840311 100.193328 
L 324.948625 99.119332 
L 325.05694 99.163103 
L 325.490197 78.347768 
L 325.598512 73.077851 
L 325.706826 74.465404 
L 325.815141 62.993199 
L 326.03177 78.645065 
L 326.140084 76.011814 
L 326.248399 69.951596 
L 326.356713 72.920037 
L 326.465027 71.489367 
L 326.573342 71.586189 
L 326.681656 73.904166 
L 326.789971 82.687341 
L 326.898285 82.071928 
L 327.114914 90.973925 
L 327.331543 78.450549 
L 327.439858 78.517328 
L 327.656487 69.814326 
L 327.764801 69.81098 
L 327.98143 68.445577 
L 328.089744 73.668125 
L 328.306373 69.403111 
L 328.414688 71.941958 
L 328.523002 78.229301 
L 328.631317 71.555951 
L 328.739631 71.787534 
L 328.95626 66.038341 
L 329.064575 66.952104 
L 329.172889 56.362806 
L 329.281203 57.517835 
L 329.389518 56.91851 
L 329.606147 64.633704 
L 329.822776 79.181667 
L 329.93109 76.985298 
L 330.256034 92.76474 
L 330.472663 98.893615 
L 330.689291 81.209027 
L 330.797606 81.820373 
L 330.90592 85.544498 
L 331.122549 73.010591 
L 331.230864 76.521696 
L 331.339178 74.852006 
L 331.447493 86.194435 
L 331.555807 74.195779 
L 331.664122 77.209743 
L 331.880751 70.148473 
L 331.989065 71.824751 
L 332.097379 78.784111 
L 332.205694 76.306108 
L 332.314008 98.464526 
L 332.530637 96.323202 
L 332.855581 114.929322 
L 332.963895 116.771768 
L 333.07221 134.098778 
L 333.180524 123.009956 
L 333.288839 133.212182 
L 333.397153 132.531823 
L 333.505467 140.645537 
L 333.613782 129.101752 
L 333.722096 129.992771 
L 333.830411 127.376318 
L 333.938725 129.890849 
L 334.155354 141.09878 
L 334.371983 133.129567 
L 334.480298 135.030153 
L 334.696927 127.626922 
L 334.913555 138.353513 
L 335.02187 137.442946 
L 335.238499 144.452838 
L 335.346813 133.093588 
L 335.455128 134.978316 
L 335.563442 133.125041 
L 335.671757 138.351875 
L 335.888386 124.665116 
L 335.9967 124.114259 
L 336.321643 137.663335 
L 336.429958 138.166033 
L 336.538272 137.924252 
L 336.646587 149.720904 
L 336.97153 140.962759 
L 337.079845 149.835051 
L 337.188159 148.22613 
L 337.296474 141.000285 
L 337.404788 141.631854 
L 337.513103 137.427111 
L 337.729731 144.161018 
L 337.838046 143.207895 
L 338.054675 139.128426 
L 338.162989 143.650953 
L 338.271304 142.215997 
L 338.379618 143.33027 
L 338.487933 146.198931 
L 338.596247 143.498397 
L 338.704562 144.31237 
L 338.812876 142.201354 
L 339.029505 146.713276 
L 339.137819 146.360332 
L 339.354448 150.469353 
L 339.462763 150.142202 
L 339.571077 149.368561 
L 339.787706 155.204294 
L 340.004335 147.854103 
L 340.870851 118.748402 
L 340.979165 120.535826 
L 341.304109 130.723878 
L 341.737367 111.942354 
L 341.845681 114.164883 
L 341.953995 106.634213 
L 342.278939 112.316387 
L 342.387253 102.445672 
L 342.820511 111.532984 
L 342.928826 111.222556 
L 343.145455 97.911182 
L 343.253769 99.183315 
L 343.470398 97.304065 
L 343.578712 102.701466 
L 343.687027 99.021112 
L 343.795341 104.942225 
L 343.903656 98.734002 
L 344.120285 99.405251 
L 344.228599 104.611448 
L 344.336914 104.283787 
L 344.553543 97.944778 
L 344.661857 95.89834 
L 344.770171 96.135206 
L 344.9868 88.24777 
L 345.203429 107.437977 
L 345.311744 106.557889 
L 345.420058 110.979904 
L 345.528373 110.048437 
L 345.636687 107.520465 
L 345.745002 110.747691 
L 345.961631 101.32213 
L 346.178259 103.988014 
L 346.286574 101.022885 
L 346.394888 104.009429 
L 346.611517 123.271204 
L 346.828146 110.947088 
L 347.044775 117.337338 
L 347.15309 115.894304 
L 347.369719 122.271332 
L 347.478033 120.717199 
L 347.911291 101.252887 
L 348.019605 98.574915 
L 348.236234 80.245924 
L 348.344549 84.808601 
L 348.452863 84.333804 
L 348.561178 81.399384 
L 348.669492 81.976205 
L 348.777807 74.017488 
L 348.886121 78.252412 
L 348.994435 74.262982 
L 349.10275 74.496398 
L 349.211064 61.964004 
L 349.319379 64.022519 
L 349.536008 60.696432 
L 349.752637 49.06066 
L 349.969266 64.608931 
L 350.07758 62.551642 
L 350.185895 63.909128 
L 350.294209 57.72279 
L 350.510838 71.091214 
L 350.727467 60.104233 
L 351.05241 63.693323 
L 351.160725 57.175496 
L 351.269039 57.927469 
L 351.485668 63.3376 
L 351.593983 62.158979 
L 351.702297 56.880445 
L 351.810611 44.443636 
L 351.918926 46.188962 
L 352.135555 52.119746 
L 352.243869 54.44886 
L 352.352184 53.529012 
L 352.460498 50.603575 
L 352.893756 75.609261 
L 353.110385 67.527791 
L 353.218699 70.363487 
L 353.327014 77.524273 
L 353.435328 73.770253 
L 353.543643 77.550271 
L 353.651957 74.633806 
L 353.760272 85.501506 
L 354.085215 73.073612 
L 354.19353 75.423614 
L 354.301844 74.76537 
L 354.410159 76.971261 
L 354.626787 98.317367 
L 354.735102 97.824145 
L 354.951731 93.919197 
L 355.060045 94.492042 
L 355.276674 104.059044 
L 355.493303 95.684322 
L 355.709932 105.909007 
L 355.818247 99.209039 
L 356.034875 107.1131 
L 356.14319 105.216319 
L 356.251504 105.632151 
L 356.359819 105.123919 
L 356.468133 99.092027 
L 356.576448 99.995788 
L 356.793077 93.561011 
L 356.901391 94.711858 
L 357.009706 93.598204 
L 357.11802 94.094222 
L 357.334649 106.401575 
L 357.442963 104.250237 
L 357.551278 106.807153 
L 357.659592 102.758093 
L 357.767907 103.760097 
L 357.984536 108.006503 
L 358.201165 116.033958 
L 358.309479 120.736151 
L 358.526108 119.698638 
L 358.634423 119.963633 
L 358.851051 113.721997 
L 358.959366 117.704071 
L 359.175995 115.98565 
L 359.284309 116.171973 
L 359.392624 118.704391 
L 359.500938 118.337485 
L 359.717567 123.310094 
L 359.934196 139.883847 
L 360.150825 135.119906 
L 360.259139 134.24086 
L 360.367454 134.539715 
L 360.475768 133.700453 
L 360.692397 130.767293 
L 360.800712 131.41432 
L 361.017341 128.99236 
L 361.125655 134.243851 
L 361.23397 133.652443 
L 361.342284 120.90343 
L 361.450599 121.078582 
L 361.883856 112.578896 
L 362.2088 118.722232 
L 362.317114 118.85996 
L 362.425429 117.717718 
L 362.533743 111.885441 
L 362.642058 113.684575 
L 362.858687 125.215114 
L 362.967001 124.947654 
L 363.18363 133.885115 
L 363.291944 130.333609 
L 363.400259 133.236003 
L 363.616888 127.610926 
L 363.725202 127.930864 
L 363.833517 132.023912 
L 364.050146 112.532433 
L 364.15846 113.795284 
L 364.266775 118.114095 
L 364.375089 127.835657 
L 364.483403 127.064251 
L 364.700032 130.990638 
L 364.808347 129.009971 
L 364.916661 119.489421 
L 365.13329 128.840709 
L 365.241605 128.520863 
L 365.349919 131.613602 
L 365.458234 126.283495 
L 365.566548 127.245533 
L 365.674863 121.950465 
L 365.783177 122.515279 
L 365.999806 118.880092 
L 366.216435 122.14387 
L 366.541378 113.68729 
L 366.758007 112.103606 
L 366.974636 104.397258 
L 367.082951 103.406598 
L 367.191265 104.588921 
L 367.299579 109.059267 
L 367.407894 106.879901 
L 367.516208 108.090469 
L 367.732837 105.879547 
L 367.841152 109.008472 
L 367.949466 115.899587 
L 368.057781 115.02807 
L 368.166095 118.595526 
L 368.27441 117.145079 
L 368.382724 118.830169 
L 368.491038 126.708391 
L 368.707667 121.883583 
L 368.815982 125.495131 
L 368.924296 123.682488 
L 369.032611 124.060829 
L 369.140925 126.136245 
L 369.357554 120.89793 
L 369.465869 121.274484 
L 369.790812 126.811562 
L 369.899126 126.862712 
L 370.007441 123.961612 
L 370.115755 130.828068 
L 370.332384 125.969412 
L 370.549013 132.008982 
L 370.765642 129.61993 
L 370.873957 131.90462 
L 370.982271 126.190752 
L 371.1989 136.919223 
L 371.307214 138.500191 
L 371.415529 142.732056 
L 371.523843 153.768124 
L 371.632158 151.638671 
L 371.740472 157.759193 
L 371.848787 157.432431 
L 371.957101 156.74207 
L 372.17373 150.810867 
L 372.282045 155.041288 
L 372.390359 153.390006 
L 372.498674 158.393036 
L 372.606988 153.71714 
L 372.715302 156.983668 
L 372.823617 156.304644 
L 372.931931 153.6896 
L 373.040246 157.282368 
L 373.14856 155.649459 
L 373.256875 155.922917 
L 373.365189 156.788648 
L 373.473504 158.664947 
L 373.581818 158.095442 
L 373.581818 158.095442 
" clip-path="url(#p7834984e66)" style="fill: none; stroke: #1f77b4; stroke-width: 1.5; stroke-linecap: square"/>
   </g>
   <g id="patch_3">
    <path d="M 54 252 
L 54 34.56 
" style="fill: none; stroke: #000000; stroke-width: 0.8; stroke-linejoin: miter; stroke-linecap: square"/>
   </g>
   <g id="patch_4">
    <path d="M 388.8 252 
L 388.8 34.56 
" style="fill: none; stroke: #000000; stroke-width: 0.8; stroke-linejoin: miter; stroke-linecap: square"/>
   </g>
   <g id="patch_5">
    <path d="M 54 252 
L 388.8 252 
" style="fill: none; stroke: #000000; stroke-width: 0.8; stroke-linejoin: miter; stroke-linecap: square"/>
   </g>
   <g id="patch_6">
    <path d="M 54 34.56 
L 388.8 34.56 
" style="fill: none; stroke: #000000; stroke-width: 0.8; stroke-linejoin: miter; stroke-linecap: square"/>
   </g>
  </g>
 </g>
 <defs>
  <clipPath id="p7834984e66">
   <rect x="54" y="34.56" width="334.8" height="217.44"/>
  </clipPath>
 </defs>
</svg>
